<?xml version="1.0" encoding="utf-8" standalone="no"?>
<!DOCTYPE svg PUBLIC "-//W3C//DTD SVG 1.1//EN"
  "http://www.w3.org/Graphics/SVG/1.1/DTD/svg11.dtd">
<!-- Created with matplotlib (https://matplotlib.org/) -->
<svg height="360pt" version="1.1" viewBox="0 0 432 360" width="432pt" xmlns="http://www.w3.org/2000/svg" xmlns:xlink="http://www.w3.org/1999/xlink">
 <metadata>
  <rdf:RDF xmlns:cc="http://creativecommons.org/ns#" xmlns:dc="http://purl.org/dc/elements/1.1/" xmlns:rdf="http://www.w3.org/1999/02/22-rdf-syntax-ns#">
   <cc:Work>
    <dc:type rdf:resource="http://purl.org/dc/dcmitype/StillImage"/>
    <dc:date>2022-01-07T13:07:17.550927</dc:date>
    <dc:format>image/svg+xml</dc:format>
    <dc:creator>
     <cc:Agent>
      <dc:title>Matplotlib v3.3.4, https://matplotlib.org/</dc:title>
     </cc:Agent>
    </dc:creator>
   </cc:Work>
  </rdf:RDF>
 </metadata>
 <defs>
  <style type="text/css">*{stroke-linecap:butt;stroke-linejoin:round;}</style>
 </defs>
 <g id="figure_1">
  <g id="patch_1">
   <path d="M 0 360 
L 432 360 
L 432 0 
L 0 0 
z
" style="fill:none;"/>
  </g>
  <g id="axes_1">
   <g id="patch_2">
    <path d="M 54 315 
L 388.8 315 
L 388.8 43.2 
L 54 43.2 
z
" style="fill:#ffffff;"/>
   </g>
   <g id="matplotlib.axis_1">
    <g id="xtick_1">
     <g id="line2d_1">
      <defs>
       <path d="M 0 0 
L 0 3.5 
" id="me514c1f8bc" style="stroke:#000000;stroke-width:0.8;"/>
      </defs>
      <g>
       <use style="stroke:#000000;stroke-width:0.8;" x="69.218182" xlink:href="#me514c1f8bc" y="315"/>
      </g>
     </g>
     <g id="text_1">
      <!-- 0 -->
      <g transform="translate(66.036932 329.598437)scale(0.1 -0.1)">
       <defs>
        <path d="M 31.78125 66.40625 
Q 24.171875 66.40625 20.328125 58.90625 
Q 16.5 51.421875 16.5 36.375 
Q 16.5 21.390625 20.328125 13.890625 
Q 24.171875 6.390625 31.78125 6.390625 
Q 39.453125 6.390625 43.28125 13.890625 
Q 47.125 21.390625 47.125 36.375 
Q 47.125 51.421875 43.28125 58.90625 
Q 39.453125 66.40625 31.78125 66.40625 
z
M 31.78125 74.21875 
Q 44.046875 74.21875 50.515625 64.515625 
Q 56.984375 54.828125 56.984375 36.375 
Q 56.984375 17.96875 50.515625 8.265625 
Q 44.046875 -1.421875 31.78125 -1.421875 
Q 19.53125 -1.421875 13.0625 8.265625 
Q 6.59375 17.96875 6.59375 36.375 
Q 6.59375 54.828125 13.0625 64.515625 
Q 19.53125 74.21875 31.78125 74.21875 
z
" id="DejaVuSans-48"/>
       </defs>
       <use xlink:href="#DejaVuSans-48"/>
      </g>
     </g>
    </g>
    <g id="xtick_2">
     <g id="line2d_2">
      <g>
       <use style="stroke:#000000;stroke-width:0.8;" x="130.090909" xlink:href="#me514c1f8bc" y="315"/>
      </g>
     </g>
     <g id="text_2">
      <!-- 20 -->
      <g transform="translate(123.728409 329.598437)scale(0.1 -0.1)">
       <defs>
        <path d="M 19.1875 8.296875 
L 53.609375 8.296875 
L 53.609375 0 
L 7.328125 0 
L 7.328125 8.296875 
Q 12.9375 14.109375 22.625 23.890625 
Q 32.328125 33.6875 34.8125 36.53125 
Q 39.546875 41.84375 41.421875 45.53125 
Q 43.3125 49.21875 43.3125 52.78125 
Q 43.3125 58.59375 39.234375 62.25 
Q 35.15625 65.921875 28.609375 65.921875 
Q 23.96875 65.921875 18.8125 64.3125 
Q 13.671875 62.703125 7.8125 59.421875 
L 7.8125 69.390625 
Q 13.765625 71.78125 18.9375 73 
Q 24.125 74.21875 28.421875 74.21875 
Q 39.75 74.21875 46.484375 68.546875 
Q 53.21875 62.890625 53.21875 53.421875 
Q 53.21875 48.921875 51.53125 44.890625 
Q 49.859375 40.875 45.40625 35.40625 
Q 44.1875 33.984375 37.640625 27.21875 
Q 31.109375 20.453125 19.1875 8.296875 
z
" id="DejaVuSans-50"/>
       </defs>
       <use xlink:href="#DejaVuSans-50"/>
       <use x="63.623047" xlink:href="#DejaVuSans-48"/>
      </g>
     </g>
    </g>
    <g id="xtick_3">
     <g id="line2d_3">
      <g>
       <use style="stroke:#000000;stroke-width:0.8;" x="190.963636" xlink:href="#me514c1f8bc" y="315"/>
      </g>
     </g>
     <g id="text_3">
      <!-- 40 -->
      <g transform="translate(184.601136 329.598437)scale(0.1 -0.1)">
       <defs>
        <path d="M 37.796875 64.3125 
L 12.890625 25.390625 
L 37.796875 25.390625 
z
M 35.203125 72.90625 
L 47.609375 72.90625 
L 47.609375 25.390625 
L 58.015625 25.390625 
L 58.015625 17.1875 
L 47.609375 17.1875 
L 47.609375 0 
L 37.796875 0 
L 37.796875 17.1875 
L 4.890625 17.1875 
L 4.890625 26.703125 
z
" id="DejaVuSans-52"/>
       </defs>
       <use xlink:href="#DejaVuSans-52"/>
       <use x="63.623047" xlink:href="#DejaVuSans-48"/>
      </g>
     </g>
    </g>
    <g id="xtick_4">
     <g id="line2d_4">
      <g>
       <use style="stroke:#000000;stroke-width:0.8;" x="251.836364" xlink:href="#me514c1f8bc" y="315"/>
      </g>
     </g>
     <g id="text_4">
      <!-- 60 -->
      <g transform="translate(245.473864 329.598437)scale(0.1 -0.1)">
       <defs>
        <path d="M 33.015625 40.375 
Q 26.375 40.375 22.484375 35.828125 
Q 18.609375 31.296875 18.609375 23.390625 
Q 18.609375 15.53125 22.484375 10.953125 
Q 26.375 6.390625 33.015625 6.390625 
Q 39.65625 6.390625 43.53125 10.953125 
Q 47.40625 15.53125 47.40625 23.390625 
Q 47.40625 31.296875 43.53125 35.828125 
Q 39.65625 40.375 33.015625 40.375 
z
M 52.59375 71.296875 
L 52.59375 62.3125 
Q 48.875 64.0625 45.09375 64.984375 
Q 41.3125 65.921875 37.59375 65.921875 
Q 27.828125 65.921875 22.671875 59.328125 
Q 17.53125 52.734375 16.796875 39.40625 
Q 19.671875 43.65625 24.015625 45.921875 
Q 28.375 48.1875 33.59375 48.1875 
Q 44.578125 48.1875 50.953125 41.515625 
Q 57.328125 34.859375 57.328125 23.390625 
Q 57.328125 12.15625 50.6875 5.359375 
Q 44.046875 -1.421875 33.015625 -1.421875 
Q 20.359375 -1.421875 13.671875 8.265625 
Q 6.984375 17.96875 6.984375 36.375 
Q 6.984375 53.65625 15.1875 63.9375 
Q 23.390625 74.21875 37.203125 74.21875 
Q 40.921875 74.21875 44.703125 73.484375 
Q 48.484375 72.75 52.59375 71.296875 
z
" id="DejaVuSans-54"/>
       </defs>
       <use xlink:href="#DejaVuSans-54"/>
       <use x="63.623047" xlink:href="#DejaVuSans-48"/>
      </g>
     </g>
    </g>
    <g id="xtick_5">
     <g id="line2d_5">
      <g>
       <use style="stroke:#000000;stroke-width:0.8;" x="312.709091" xlink:href="#me514c1f8bc" y="315"/>
      </g>
     </g>
     <g id="text_5">
      <!-- 80 -->
      <g transform="translate(306.346591 329.598437)scale(0.1 -0.1)">
       <defs>
        <path d="M 31.78125 34.625 
Q 24.75 34.625 20.71875 30.859375 
Q 16.703125 27.09375 16.703125 20.515625 
Q 16.703125 13.921875 20.71875 10.15625 
Q 24.75 6.390625 31.78125 6.390625 
Q 38.8125 6.390625 42.859375 10.171875 
Q 46.921875 13.96875 46.921875 20.515625 
Q 46.921875 27.09375 42.890625 30.859375 
Q 38.875 34.625 31.78125 34.625 
z
M 21.921875 38.8125 
Q 15.578125 40.375 12.03125 44.71875 
Q 8.5 49.078125 8.5 55.328125 
Q 8.5 64.0625 14.71875 69.140625 
Q 20.953125 74.21875 31.78125 74.21875 
Q 42.671875 74.21875 48.875 69.140625 
Q 55.078125 64.0625 55.078125 55.328125 
Q 55.078125 49.078125 51.53125 44.71875 
Q 48 40.375 41.703125 38.8125 
Q 48.828125 37.15625 52.796875 32.3125 
Q 56.78125 27.484375 56.78125 20.515625 
Q 56.78125 9.90625 50.3125 4.234375 
Q 43.84375 -1.421875 31.78125 -1.421875 
Q 19.734375 -1.421875 13.25 4.234375 
Q 6.78125 9.90625 6.78125 20.515625 
Q 6.78125 27.484375 10.78125 32.3125 
Q 14.796875 37.15625 21.921875 38.8125 
z
M 18.3125 54.390625 
Q 18.3125 48.734375 21.84375 45.5625 
Q 25.390625 42.390625 31.78125 42.390625 
Q 38.140625 42.390625 41.71875 45.5625 
Q 45.3125 48.734375 45.3125 54.390625 
Q 45.3125 60.0625 41.71875 63.234375 
Q 38.140625 66.40625 31.78125 66.40625 
Q 25.390625 66.40625 21.84375 63.234375 
Q 18.3125 60.0625 18.3125 54.390625 
z
" id="DejaVuSans-56"/>
       </defs>
       <use xlink:href="#DejaVuSans-56"/>
       <use x="63.623047" xlink:href="#DejaVuSans-48"/>
      </g>
     </g>
    </g>
    <g id="xtick_6">
     <g id="line2d_6">
      <g>
       <use style="stroke:#000000;stroke-width:0.8;" x="373.581818" xlink:href="#me514c1f8bc" y="315"/>
      </g>
     </g>
     <g id="text_6">
      <!-- 100 -->
      <g transform="translate(364.038068 329.598437)scale(0.1 -0.1)">
       <defs>
        <path d="M 12.40625 8.296875 
L 28.515625 8.296875 
L 28.515625 63.921875 
L 10.984375 60.40625 
L 10.984375 69.390625 
L 28.421875 72.90625 
L 38.28125 72.90625 
L 38.28125 8.296875 
L 54.390625 8.296875 
L 54.390625 0 
L 12.40625 0 
z
" id="DejaVuSans-49"/>
       </defs>
       <use xlink:href="#DejaVuSans-49"/>
       <use x="63.623047" xlink:href="#DejaVuSans-48"/>
       <use x="127.246094" xlink:href="#DejaVuSans-48"/>
      </g>
     </g>
    </g>
   </g>
   <g id="matplotlib.axis_2">
    <g id="ytick_1">
     <g id="line2d_7">
      <defs>
       <path d="M 0 0 
L -3.5 0 
" id="mf80b0dd5e2" style="stroke:#000000;stroke-width:0.8;"/>
      </defs>
      <g>
       <use style="stroke:#000000;stroke-width:0.8;" x="54" xlink:href="#mf80b0dd5e2" y="302.645455"/>
      </g>
     </g>
     <g id="text_7">
      <!-- 0 -->
      <g transform="translate(40.6375 306.444673)scale(0.1 -0.1)">
       <use xlink:href="#DejaVuSans-48"/>
      </g>
     </g>
    </g>
    <g id="ytick_2">
     <g id="line2d_8">
      <g>
       <use style="stroke:#000000;stroke-width:0.8;" x="54" xlink:href="#mf80b0dd5e2" y="269.629566"/>
      </g>
     </g>
     <g id="text_8">
      <!-- 1000 -->
      <g transform="translate(21.55 273.428785)scale(0.1 -0.1)">
       <use xlink:href="#DejaVuSans-49"/>
       <use x="63.623047" xlink:href="#DejaVuSans-48"/>
       <use x="127.246094" xlink:href="#DejaVuSans-48"/>
       <use x="190.869141" xlink:href="#DejaVuSans-48"/>
      </g>
     </g>
    </g>
    <g id="ytick_3">
     <g id="line2d_9">
      <g>
       <use style="stroke:#000000;stroke-width:0.8;" x="54" xlink:href="#mf80b0dd5e2" y="236.613678"/>
      </g>
     </g>
     <g id="text_9">
      <!-- 2000 -->
      <g transform="translate(21.55 240.412896)scale(0.1 -0.1)">
       <use xlink:href="#DejaVuSans-50"/>
       <use x="63.623047" xlink:href="#DejaVuSans-48"/>
       <use x="127.246094" xlink:href="#DejaVuSans-48"/>
       <use x="190.869141" xlink:href="#DejaVuSans-48"/>
      </g>
     </g>
    </g>
    <g id="ytick_4">
     <g id="line2d_10">
      <g>
       <use style="stroke:#000000;stroke-width:0.8;" x="54" xlink:href="#mf80b0dd5e2" y="203.597789"/>
      </g>
     </g>
     <g id="text_10">
      <!-- 3000 -->
      <g transform="translate(21.55 207.397008)scale(0.1 -0.1)">
       <defs>
        <path d="M 40.578125 39.3125 
Q 47.65625 37.796875 51.625 33 
Q 55.609375 28.21875 55.609375 21.1875 
Q 55.609375 10.40625 48.1875 4.484375 
Q 40.765625 -1.421875 27.09375 -1.421875 
Q 22.515625 -1.421875 17.65625 -0.515625 
Q 12.796875 0.390625 7.625 2.203125 
L 7.625 11.71875 
Q 11.71875 9.328125 16.59375 8.109375 
Q 21.484375 6.890625 26.8125 6.890625 
Q 36.078125 6.890625 40.9375 10.546875 
Q 45.796875 14.203125 45.796875 21.1875 
Q 45.796875 27.640625 41.28125 31.265625 
Q 36.765625 34.90625 28.71875 34.90625 
L 20.21875 34.90625 
L 20.21875 43.015625 
L 29.109375 43.015625 
Q 36.375 43.015625 40.234375 45.921875 
Q 44.09375 48.828125 44.09375 54.296875 
Q 44.09375 59.90625 40.109375 62.90625 
Q 36.140625 65.921875 28.71875 65.921875 
Q 24.65625 65.921875 20.015625 65.03125 
Q 15.375 64.15625 9.8125 62.3125 
L 9.8125 71.09375 
Q 15.4375 72.65625 20.34375 73.4375 
Q 25.25 74.21875 29.59375 74.21875 
Q 40.828125 74.21875 47.359375 69.109375 
Q 53.90625 64.015625 53.90625 55.328125 
Q 53.90625 49.265625 50.4375 45.09375 
Q 46.96875 40.921875 40.578125 39.3125 
z
" id="DejaVuSans-51"/>
       </defs>
       <use xlink:href="#DejaVuSans-51"/>
       <use x="63.623047" xlink:href="#DejaVuSans-48"/>
       <use x="127.246094" xlink:href="#DejaVuSans-48"/>
       <use x="190.869141" xlink:href="#DejaVuSans-48"/>
      </g>
     </g>
    </g>
    <g id="ytick_5">
     <g id="line2d_11">
      <g>
       <use style="stroke:#000000;stroke-width:0.8;" x="54" xlink:href="#mf80b0dd5e2" y="170.581901"/>
      </g>
     </g>
     <g id="text_11">
      <!-- 4000 -->
      <g transform="translate(21.55 174.38112)scale(0.1 -0.1)">
       <use xlink:href="#DejaVuSans-52"/>
       <use x="63.623047" xlink:href="#DejaVuSans-48"/>
       <use x="127.246094" xlink:href="#DejaVuSans-48"/>
       <use x="190.869141" xlink:href="#DejaVuSans-48"/>
      </g>
     </g>
    </g>
    <g id="ytick_6">
     <g id="line2d_12">
      <g>
       <use style="stroke:#000000;stroke-width:0.8;" x="54" xlink:href="#mf80b0dd5e2" y="137.566012"/>
      </g>
     </g>
     <g id="text_12">
      <!-- 5000 -->
      <g transform="translate(21.55 141.365231)scale(0.1 -0.1)">
       <defs>
        <path d="M 10.796875 72.90625 
L 49.515625 72.90625 
L 49.515625 64.59375 
L 19.828125 64.59375 
L 19.828125 46.734375 
Q 21.96875 47.46875 24.109375 47.828125 
Q 26.265625 48.1875 28.421875 48.1875 
Q 40.625 48.1875 47.75 41.5 
Q 54.890625 34.8125 54.890625 23.390625 
Q 54.890625 11.625 47.5625 5.09375 
Q 40.234375 -1.421875 26.90625 -1.421875 
Q 22.3125 -1.421875 17.546875 -0.640625 
Q 12.796875 0.140625 7.71875 1.703125 
L 7.71875 11.625 
Q 12.109375 9.234375 16.796875 8.0625 
Q 21.484375 6.890625 26.703125 6.890625 
Q 35.15625 6.890625 40.078125 11.328125 
Q 45.015625 15.765625 45.015625 23.390625 
Q 45.015625 31 40.078125 35.4375 
Q 35.15625 39.890625 26.703125 39.890625 
Q 22.75 39.890625 18.8125 39.015625 
Q 14.890625 38.140625 10.796875 36.28125 
z
" id="DejaVuSans-53"/>
       </defs>
       <use xlink:href="#DejaVuSans-53"/>
       <use x="63.623047" xlink:href="#DejaVuSans-48"/>
       <use x="127.246094" xlink:href="#DejaVuSans-48"/>
       <use x="190.869141" xlink:href="#DejaVuSans-48"/>
      </g>
     </g>
    </g>
    <g id="ytick_7">
     <g id="line2d_13">
      <g>
       <use style="stroke:#000000;stroke-width:0.8;" x="54" xlink:href="#mf80b0dd5e2" y="104.550124"/>
      </g>
     </g>
     <g id="text_13">
      <!-- 6000 -->
      <g transform="translate(21.55 108.349343)scale(0.1 -0.1)">
       <use xlink:href="#DejaVuSans-54"/>
       <use x="63.623047" xlink:href="#DejaVuSans-48"/>
       <use x="127.246094" xlink:href="#DejaVuSans-48"/>
       <use x="190.869141" xlink:href="#DejaVuSans-48"/>
      </g>
     </g>
    </g>
    <g id="ytick_8">
     <g id="line2d_14">
      <g>
       <use style="stroke:#000000;stroke-width:0.8;" x="54" xlink:href="#mf80b0dd5e2" y="71.534235"/>
      </g>
     </g>
     <g id="text_14">
      <!-- 7000 -->
      <g transform="translate(21.55 75.333454)scale(0.1 -0.1)">
       <defs>
        <path d="M 8.203125 72.90625 
L 55.078125 72.90625 
L 55.078125 68.703125 
L 28.609375 0 
L 18.3125 0 
L 43.21875 64.59375 
L 8.203125 64.59375 
z
" id="DejaVuSans-55"/>
       </defs>
       <use xlink:href="#DejaVuSans-55"/>
       <use x="63.623047" xlink:href="#DejaVuSans-48"/>
       <use x="127.246094" xlink:href="#DejaVuSans-48"/>
       <use x="190.869141" xlink:href="#DejaVuSans-48"/>
      </g>
     </g>
    </g>
   </g>
   <g id="line2d_15">
    <path clip-path="url(#pc06f30d0fc)" d="M 69.218182 55.554545 
L 72.261818 57.568515 
L 75.305455 70.279632 
L 78.349091 80.877732 
L 81.392727 88.471386 
L 84.436364 93.654881 
L 87.48 98.310121 
L 90.523636 106.465045 
L 93.567273 120.628862 
L 96.610909 127.099976 
L 99.654545 130.566644 
L 102.698182 137.632044 
L 105.741818 139.480934 
L 108.785455 138.490457 
L 111.829091 147.470779 
L 114.872727 154.139988 
L 117.916364 158.46507 
L 120.96 166.256819 
L 124.003636 165.36539 
L 127.047273 165.36539 
L 130.090909 163.417453 
L 133.134545 176.590792 
L 136.178182 175.501268 
L 139.221818 179.694286 
L 142.265455 174.378728 
L 145.309091 179.925397 
L 148.352727 187.882226 
L 151.396364 194.51842 
L 154.44 189.896196 
L 157.483636 192.636514 
L 160.527273 193.858102 
L 163.570909 207.295569 
L 166.614545 209.969856 
L 169.658182 209.243506 
L 172.701818 213.007317 
L 175.745455 214.294937 
L 178.789091 214.03081 
L 181.832727 214.327953 
L 184.876364 213.568588 
L 187.92 215.846684 
L 190.963636 214.03081 
L 194.007273 214.427001 
L 197.050909 220.402876 
L 200.094545 226.180657 
L 203.138182 233.609232 
L 206.181818 228.32669 
L 209.225455 227.60034 
L 212.269091 232.651771 
L 215.312727 230.769865 
L 218.356364 237.934313 
L 221.4 242.29241 
L 224.443636 247.310826 
L 227.487273 255.069559 
L 230.530909 251.37178 
L 233.574545 253.253685 
L 236.618182 258.43718 
L 239.661818 253.715908 
L 242.705455 243.646062 
L 245.749091 243.117808 
L 248.792727 242.490506 
L 251.836364 238.066377 
L 254.88 242.919712 
L 257.923636 246.815587 
L 260.967273 248.466382 
L 264.010909 244.504475 
L 267.054545 237.0759 
L 270.098182 244.207332 
L 273.141818 250.447335 
L 276.185455 248.532413 
L 279.229091 249.952097 
L 282.272727 250.942573 
L 285.316364 252.329241 
L 288.36 250.876541 
L 291.403636 255.168607 
L 294.447273 256.885433 
L 297.490909 261.474642 
L 300.534545 259.229561 
L 303.578182 260.913372 
L 306.621818 261.210515 
L 309.665455 265.931787 
L 312.709091 269.992741 
L 315.752727 269.959725 
L 318.796364 265.733691 
L 321.84 263.65369 
L 324.883636 263.785754 
L 327.927273 267.549565 
L 330.970909 268.176867 
L 334.014545 270.785122 
L 337.058182 266.096866 
L 340.101818 269.695598 
L 343.145455 271.643535 
L 346.189091 268.969248 
L 349.232727 271.775599 
L 352.276364 269.563534 
L 355.32 269.629566 
L 358.363636 270.256868 
L 361.407273 271.181313 
L 364.450909 267.91274 
L 367.494545 269.101312 
L 370.538182 272.00671 
L 373.581818 270.289884 
" style="fill:none;stroke:#000000;stroke-linecap:square;stroke-width:1.5;"/>
   </g>
   <g id="line2d_16">
    <path clip-path="url(#pc06f30d0fc)" d="M 69.218182 302.513391 
L 72.261818 302.084184 
L 75.305455 302.447359 
L 78.349091 302.480375 
L 81.392727 301.55593 
L 84.436364 301.357835 
L 87.48 301.258787 
L 90.523636 301.225771 
L 93.567273 301.093708 
L 96.610909 299.740056 
L 99.654545 299.112754 
L 102.698182 297.164817 
L 105.741818 297.726087 
L 108.785455 297.924182 
L 111.829091 299.70704 
L 114.872727 300.301326 
L 117.916364 300.631485 
L 120.96 300.400374 
L 124.003636 300.037199 
L 127.047273 300.43339 
L 130.090909 300.598469 
L 133.134545 300.961644 
L 136.178182 301.192755 
L 139.221818 300.103231 
L 142.265455 298.980691 
L 145.309091 298.353389 
L 148.352727 297.990214 
L 151.396364 298.02323 
L 154.44 298.02323 
L 157.483636 298.320373 
L 160.527273 297.858151 
L 163.570909 297.924182 
L 166.614545 297.098785 
L 169.658182 297.46196 
L 172.701818 298.74958 
L 175.745455 297.527992 
L 178.789091 296.17434 
L 181.832727 295.381959 
L 184.876364 298.320373 
L 187.92 298.947675 
L 190.963636 299.541961 
L 194.007273 299.905136 
L 197.050909 300.268311 
L 200.094545 300.631485 
L 203.138182 300.99466 
L 206.181818 301.588946 
L 209.225455 301.55593 
L 212.269091 300.631485 
L 215.312727 300.99466 
L 218.356364 301.55593 
L 221.4 301.621962 
L 224.443636 301.357835 
L 227.487273 302.579423 
L 230.530909 302.645455 
L 233.574545 302.612439 
L 236.618182 302.645455 
L 239.661818 302.645455 
L 242.705455 302.447359 
L 245.749091 302.381327 
L 248.792727 302.447359 
L 251.836364 302.513391 
L 254.88 301.654978 
L 257.923636 301.55593 
L 260.967273 301.060692 
L 264.010909 301.55593 
L 267.054545 302.513391 
L 270.098182 302.513391 
L 273.141818 302.447359 
L 276.185455 302.1172 
L 279.229091 301.291803 
L 282.272727 300.631485 
L 285.316364 300.400374 
L 288.36 301.093708 
L 291.403636 301.522914 
L 294.447273 302.018153 
L 297.490909 301.853073 
L 300.534545 301.456883 
L 303.578182 301.654978 
L 306.621818 301.588946 
L 309.665455 301.489898 
L 312.709091 299.607993 
L 315.752727 299.971168 
L 318.796364 300.334342 
L 321.84 298.74958 
L 324.883636 300.004183 
L 327.927273 300.202279 
L 330.970909 300.796565 
L 334.014545 300.961644 
L 337.058182 300.169263 
L 340.101818 299.971168 
L 343.145455 300.070215 
L 346.189091 299.674025 
L 349.232727 300.367358 
L 352.276364 300.928628 
L 355.32 301.787041 
L 358.363636 302.051169 
L 361.407273 302.28228 
L 364.450909 302.1172 
L 367.494545 302.183232 
L 370.538182 302.348312 
L 373.581818 302.414343 
" style="fill:none;stroke:#000000;stroke-linecap:square;stroke-width:1.5;"/>
   </g>
   <g id="line2d_17">
    <path clip-path="url(#pc06f30d0fc)" d="M 69.218182 267.483533 
L 72.261818 267.153374 
L 75.305455 262.300039 
L 78.349091 260.385117 
L 81.392727 258.140037 
L 84.436364 256.357179 
L 87.48 256.654322 
L 90.523636 249.720985 
L 93.567273 242.490506 
L 96.610909 236.679709 
L 99.654545 234.896851 
L 102.698182 227.996531 
L 105.741818 225.322244 
L 108.785455 224.727958 
L 111.829091 223.539386 
L 114.872727 219.445416 
L 117.916364 215.813668 
L 120.96 215.747636 
L 124.003636 222.813036 
L 127.047273 222.813036 
L 130.090909 225.19018 
L 133.134545 223.704465 
L 136.178182 220.832083 
L 139.221818 222.416846 
L 142.265455 223.275259 
L 145.309091 213.568588 
L 148.352727 203.135567 
L 151.396364 196.20223 
L 154.44 193.726039 
L 157.483636 187.420004 
L 160.527273 189.268894 
L 163.570909 186.429527 
L 166.614545 183.028891 
L 169.658182 186.792702 
L 172.701818 190.886672 
L 175.745455 189.830164 
L 178.789091 192.042228 
L 181.832727 199.701914 
L 184.876364 190.523497 
L 187.92 191.447942 
L 190.963636 200.956518 
L 194.007273 205.479695 
L 197.050909 205.512711 
L 200.094545 210.167951 
L 203.138182 207.493664 
L 206.181818 203.003503 
L 209.225455 208.352077 
L 212.269091 205.875886 
L 215.312727 209.969856 
L 218.356364 196.631437 
L 221.4 194.089213 
L 224.443636 196.268262 
L 227.487273 195.145722 
L 230.530909 186.72667 
L 233.574545 182.302541 
L 236.618182 178.37365 
L 239.661818 185.075876 
L 242.705455 190.094291 
L 245.749091 191.348895 
L 248.792727 197.621913 
L 251.836364 201.055566 
L 254.88 209.177474 
L 257.923636 207.559696 
L 260.967273 207.064458 
L 264.010909 213.040333 
L 267.054545 218.025732 
L 270.098182 215.021287 
L 273.141818 205.11652 
L 276.185455 204.357155 
L 279.229091 201.385725 
L 282.272727 201.748899 
L 285.316364 202.079058 
L 288.36 207.328585 
L 291.403636 214.75716 
L 294.447273 216.870176 
L 297.490909 216.44097 
L 300.534545 212.313984 
L 303.578182 210.266999 
L 306.621818 213.634619 
L 309.665455 214.856207 
L 312.709091 217.299383 
L 315.752727 222.614941 
L 318.796364 223.176211 
L 321.84 218.28986 
L 324.883636 214.360969 
L 327.927273 211.62065 
L 330.970909 211.78573 
L 334.014545 214.261921 
L 337.058182 215.252398 
L 340.101818 204.918425 
L 343.145455 212.875254 
L 346.189091 211.983825 
L 349.232727 209.837792 
L 352.276364 212.875254 
L 355.32 212.974302 
L 358.363636 214.327953 
L 361.407273 211.78573 
L 364.450909 212.941286 
L 367.494545 214.691128 
L 370.538182 213.073349 
L 373.581818 214.75716 
" style="fill:none;stroke:#000000;stroke-linecap:square;stroke-width:1.5;"/>
   </g>
   <g id="line2d_18">
    <path clip-path="url(#pc06f30d0fc)" d="M 69.218182 259.658768 
L 72.261818 258.338132 
L 75.305455 251.140669 
L 78.349091 243.183839 
L 81.392727 238.990822 
L 84.436364 236.052408 
L 87.48 230.901929 
L 90.523636 229.020023 
L 93.567273 223.473354 
L 96.610909 223.605418 
L 99.654545 221.921607 
L 102.698182 224.463831 
L 105.741818 226.609863 
L 108.785455 229.647325 
L 111.829091 221.195258 
L 114.872727 218.553987 
L 117.916364 217.101288 
L 120.96 209.012395 
L 124.003636 204.885409 
L 127.047273 204.687314 
L 130.090909 205.380647 
L 133.134545 192.735562 
L 136.178182 197.32477 
L 139.221818 192.207308 
L 142.265455 199.107628 
L 145.309091 206.007949 
L 148.352727 207.460648 
L 151.396364 207.790807 
L 154.44 218.421923 
L 157.483636 224.463831 
L 160.527273 221.690496 
L 163.570909 213.370492 
L 166.614545 214.823191 
L 169.658182 207.757791 
L 172.701818 198.315247 
L 175.745455 198.282231 
L 178.789091 195.80604 
L 181.832727 188.641592 
L 184.876364 194.584452 
L 187.92 187.981274 
L 190.963636 181.609208 
L 194.007273 174.510792 
L 197.050909 167.115232 
L 200.094545 158.729197 
L 203.138182 151.729828 
L 206.181818 161.634595 
L 209.225455 155.757767 
L 212.269091 152.52221 
L 215.312727 149.814907 
L 218.356364 156.715228 
L 221.4 154.305068 
L 224.443636 148.26316 
L 227.487273 142.155221 
L 230.530909 151.003479 
L 233.574545 155.262529 
L 236.618182 154.965386 
L 239.661818 157.012371 
L 242.705455 161.27142 
L 245.749091 159.752689 
L 248.792727 153.710782 
L 251.836364 152.126019 
L 254.88 138.655537 
L 257.923636 138.7876 
L 260.967273 141.461887 
L 264.010909 137.367917 
L 267.054545 142.056173 
L 270.098182 139.183791 
L 273.141818 140.471411 
L 276.185455 140.07522 
L 279.229091 144.829508 
L 282.272727 142.155221 
L 285.316364 140.240299 
L 288.36 132.679661 
L 291.403636 126.109499 
L 294.447273 121.025052 
L 297.490909 127.496166 
L 300.534545 132.943788 
L 303.578182 134.13236 
L 306.621818 125.185054 
L 309.665455 120.430766 
L 312.709091 112.804096 
L 315.752727 105.309489 
L 318.796364 105.14441 
L 321.84 114.0587 
L 324.883636 115.214256 
L 327.927273 117.855527 
L 330.970909 120.034576 
L 334.014545 114.289811 
L 337.058182 120.39775 
L 340.101818 125.878388 
L 343.145455 114.884097 
L 346.189091 121.1241 
L 349.232727 119.539337 
L 352.276364 119.44029 
L 355.32 115.610447 
L 358.363636 113.89362 
L 361.407273 112.275842 
L 364.450909 115.148224 
L 367.494545 114.322827 
L 370.538182 115.346319 
L 373.581818 116.732987 
" style="fill:none;stroke:#000000;stroke-linecap:square;stroke-width:1.5;"/>
   </g>
   <g id="line2d_19">
    <path clip-path="url(#pc06f30d0fc)" d="M 69.218182 301.985137 
L 72.261818 302.084184 
L 75.305455 302.381327 
L 78.349091 302.183232 
L 81.392727 302.513391 
L 84.436364 301.787041 
L 87.48 301.456883 
L 90.523636 301.456883 
L 93.567273 300.532438 
L 96.610909 301.522914 
L 99.654545 302.249264 
L 102.698182 302.150216 
L 105.741818 301.787041 
L 108.785455 301.621962 
L 111.829091 301.489898 
L 114.872727 302.480375 
L 117.916364 302.447359 
L 120.96 302.249264 
L 124.003636 302.183232 
L 127.047273 302.084184 
L 130.090909 302.216248 
L 133.134545 302.183232 
L 136.178182 301.985137 
L 139.221818 301.820057 
L 142.265455 301.621962 
L 145.309091 300.697517 
L 148.352727 301.291803 
L 151.396364 300.136247 
L 154.44 299.277834 
L 157.483636 299.14577 
L 160.527273 299.343866 
L 163.570909 298.617516 
L 166.614545 298.5845 
L 169.658182 299.508945 
L 172.701818 299.70704 
L 175.745455 300.301326 
L 178.789091 300.334342 
L 181.832727 300.169263 
L 184.876364 299.905136 
L 187.92 300.763549 
L 190.963636 300.070215 
L 194.007273 301.522914 
L 197.050909 301.820057 
L 200.094545 301.952121 
L 203.138182 301.55593 
L 206.181818 301.754026 
L 209.225455 302.447359 
L 212.269091 301.886089 
L 215.312727 301.754026 
L 218.356364 301.588946 
L 221.4 300.763549 
L 224.443636 300.763549 
L 227.487273 300.367358 
L 230.530909 300.697517 
L 233.574545 299.674025 
L 236.618182 300.268311 
L 239.661818 298.980691 
L 242.705455 298.716564 
L 245.749091 299.70704 
L 248.792727 299.674025 
L 251.836364 300.961644 
L 254.88 301.060692 
L 257.923636 301.258787 
L 260.967273 301.192755 
L 264.010909 301.853073 
L 267.054545 301.291803 
L 270.098182 300.070215 
L 273.141818 300.43339 
L 276.185455 301.291803 
L 279.229091 301.390851 
L 282.272727 300.334342 
L 285.316364 298.848627 
L 288.36 299.343866 
L 291.403636 297.660055 
L 294.447273 298.914659 
L 297.490909 295.77815 
L 300.534545 294.424498 
L 303.578182 295.447991 
L 306.621818 295.580054 
L 309.665455 293.764181 
L 312.709091 292.872752 
L 315.752727 292.08037 
L 318.796364 295.481007 
L 321.84 296.009261 
L 324.883636 298.155294 
L 327.927273 296.372436 
L 330.970909 295.282911 
L 334.014545 296.570531 
L 337.058182 296.735611 
L 340.101818 297.594024 
L 343.145455 294.556562 
L 346.189091 294.523546 
L 349.232727 294.226403 
L 352.276364 292.24545 
L 355.32 293.037831 
L 358.363636 293.92926 
L 361.407273 294.886721 
L 364.450909 293.797196 
L 367.494545 292.377513 
L 370.538182 292.542593 
L 373.581818 291.056878 
" style="fill:none;stroke:#000000;stroke-linecap:square;stroke-width:1.5;"/>
   </g>
   <g id="line2d_20">
    <path clip-path="url(#pc06f30d0fc)" d="M 69.218182 298.518468 
L 72.261818 298.485453 
L 75.305455 297.197833 
L 78.349091 296.603547 
L 81.392727 296.042277 
L 84.436364 296.504499 
L 87.48 297.131801 
L 90.523636 297.825135 
L 93.567273 297.494976 
L 96.610909 297.098785 
L 99.654545 296.966722 
L 102.698182 296.33942 
L 105.741818 294.787673 
L 108.785455 293.36799 
L 111.829091 292.443545 
L 114.872727 290.792751 
L 117.916364 291.287989 
L 120.96 292.047354 
L 124.003636 290.495608 
L 127.047273 290.561639 
L 130.090909 289.207988 
L 133.134545 290.132433 
L 136.178182 289.604179 
L 139.221818 290.660687 
L 142.265455 288.811797 
L 145.309091 287.458146 
L 148.352727 288.580686 
L 151.396364 289.769258 
L 154.44 287.227035 
L 157.483636 285.510208 
L 160.527273 284.651795 
L 163.570909 283.595287 
L 166.614545 284.222589 
L 169.658182 287.524178 
L 172.701818 286.269574 
L 175.745455 286.533701 
L 178.789091 289.307036 
L 181.832727 289.868306 
L 184.876364 290.792751 
L 187.92 291.849259 
L 190.963636 290.627671 
L 194.007273 290.693703 
L 197.050909 291.321005 
L 200.094545 289.141956 
L 203.138182 290.429576 
L 206.181818 289.406083 
L 209.225455 290.000369 
L 212.269091 292.179418 
L 215.312727 292.476561 
L 218.356364 291.420052 
L 221.4 292.872752 
L 224.443636 292.179418 
L 227.487273 290.495608 
L 230.530909 293.533069 
L 233.574545 292.872752 
L 236.618182 291.5191 
L 239.661818 288.481638 
L 242.705455 290.000369 
L 245.749091 289.439099 
L 248.792727 289.769258 
L 251.836364 291.056878 
L 254.88 292.24545 
L 257.923636 289.769258 
L 260.967273 286.731796 
L 264.010909 287.392114 
L 267.054545 285.01497 
L 270.098182 285.114018 
L 273.141818 287.656241 
L 276.185455 289.472115 
L 279.229091 286.86386 
L 282.272727 289.934337 
L 285.316364 291.816243 
L 288.36 294.391482 
L 291.403636 290.495608 
L 294.447273 290.165449 
L 297.490909 282.76989 
L 300.534545 286.368622 
L 303.578182 283.694335 
L 306.621818 288.745766 
L 309.665455 289.439099 
L 312.709091 293.235926 
L 315.752727 295.976245 
L 318.796364 295.877197 
L 321.84 295.21688 
L 324.883636 294.721641 
L 327.927273 292.113386 
L 330.970909 289.637194 
L 334.014545 288.943861 
L 337.058182 287.359098 
L 340.101818 288.283543 
L 343.145455 291.717195 
L 346.189091 289.439099 
L 349.232727 290.066401 
L 352.276364 290.924814 
L 355.32 293.070847 
L 358.363636 291.618148 
L 361.407273 293.533069 
L 364.450909 294.622594 
L 367.494545 293.20291 
L 370.538182 290.39656 
L 373.581818 290.528623 
" style="fill:none;stroke:#000000;stroke-linecap:square;stroke-width:1.5;"/>
   </g>
   <g id="patch_3">
    <path d="M 54 315 
L 54 43.2 
" style="fill:none;stroke:#000000;stroke-linecap:square;stroke-linejoin:miter;stroke-width:0.8;"/>
   </g>
   <g id="patch_4">
    <path d="M 388.8 315 
L 388.8 43.2 
" style="fill:none;stroke:#000000;stroke-linecap:square;stroke-linejoin:miter;stroke-width:0.8;"/>
   </g>
   <g id="patch_5">
    <path d="M 54 315 
L 388.8 315 
" style="fill:none;stroke:#000000;stroke-linecap:square;stroke-linejoin:miter;stroke-width:0.8;"/>
   </g>
   <g id="patch_6">
    <path d="M 54 43.2 
L 388.8 43.2 
" style="fill:none;stroke:#000000;stroke-linecap:square;stroke-linejoin:miter;stroke-width:0.8;"/>
   </g>
  </g>
 </g>
 <defs>
  <clipPath id="pc06f30d0fc">
   <rect height="271.8" width="334.8" x="54" y="43.2"/>
  </clipPath>
 </defs>
</svg>
