<?xml version="1.0" encoding="utf-8" standalone="no"?>
<!DOCTYPE svg PUBLIC "-//W3C//DTD SVG 1.1//EN"
  "http://www.w3.org/Graphics/SVG/1.1/DTD/svg11.dtd">
<!-- Created with matplotlib (https://matplotlib.org/) -->
<svg height="576pt" version="1.1" viewBox="0 0 720 576" width="720pt" xmlns="http://www.w3.org/2000/svg" xmlns:xlink="http://www.w3.org/1999/xlink">
 <metadata>
  <rdf:RDF xmlns:cc="http://creativecommons.org/ns#" xmlns:dc="http://purl.org/dc/elements/1.1/" xmlns:rdf="http://www.w3.org/1999/02/22-rdf-syntax-ns#">
   <cc:Work>
    <dc:type rdf:resource="http://purl.org/dc/dcmitype/StillImage"/>
    <dc:date>2022-01-06T14:30:09.597857</dc:date>
    <dc:format>image/svg+xml</dc:format>
    <dc:creator>
     <cc:Agent>
      <dc:title>Matplotlib v3.3.4, https://matplotlib.org/</dc:title>
     </cc:Agent>
    </dc:creator>
   </cc:Work>
  </rdf:RDF>
 </metadata>
 <defs>
  <style type="text/css">*{stroke-linecap:butt;stroke-linejoin:round;}</style>
 </defs>
 <g id="figure_1">
  <g id="patch_1">
   <path d="M 0 576 
L 720 576 
L 720 0 
L 0 0 
z
" style="fill:none;"/>
  </g>
  <g id="axes_1">
   <g id="patch_2">
    <path d="M 90 504 
L 648 504 
L 648 69.12 
L 90 69.12 
z
" style="fill:#ffffff;"/>
   </g>
   <g id="matplotlib.axis_1">
    <g id="xtick_1">
     <g id="line2d_1">
      <defs>
       <path d="M 0 0 
L 0 3.5 
" id="m3f7a8b80ed" style="stroke:#000000;stroke-width:0.8;"/>
      </defs>
      <g>
       <use style="stroke:#000000;stroke-width:0.8;" x="115.363636" xlink:href="#m3f7a8b80ed" y="504"/>
      </g>
     </g>
     <g id="text_1">
      <!-- 0 -->
      <g transform="translate(112.182386 518.598438)scale(0.1 -0.1)">
       <defs>
        <path d="M 31.78125 66.40625 
Q 24.171875 66.40625 20.328125 58.90625 
Q 16.5 51.421875 16.5 36.375 
Q 16.5 21.390625 20.328125 13.890625 
Q 24.171875 6.390625 31.78125 6.390625 
Q 39.453125 6.390625 43.28125 13.890625 
Q 47.125 21.390625 47.125 36.375 
Q 47.125 51.421875 43.28125 58.90625 
Q 39.453125 66.40625 31.78125 66.40625 
z
M 31.78125 74.21875 
Q 44.046875 74.21875 50.515625 64.515625 
Q 56.984375 54.828125 56.984375 36.375 
Q 56.984375 17.96875 50.515625 8.265625 
Q 44.046875 -1.421875 31.78125 -1.421875 
Q 19.53125 -1.421875 13.0625 8.265625 
Q 6.59375 17.96875 6.59375 36.375 
Q 6.59375 54.828125 13.0625 64.515625 
Q 19.53125 74.21875 31.78125 74.21875 
z
" id="DejaVuSans-48"/>
       </defs>
       <use xlink:href="#DejaVuSans-48"/>
      </g>
     </g>
    </g>
    <g id="xtick_2">
     <g id="line2d_2">
      <g>
       <use style="stroke:#000000;stroke-width:0.8;" x="182.110048" xlink:href="#m3f7a8b80ed" y="504"/>
      </g>
     </g>
     <g id="text_2">
      <!-- 20 -->
      <g transform="translate(175.747548 518.598438)scale(0.1 -0.1)">
       <defs>
        <path d="M 19.1875 8.296875 
L 53.609375 8.296875 
L 53.609375 0 
L 7.328125 0 
L 7.328125 8.296875 
Q 12.9375 14.109375 22.625 23.890625 
Q 32.328125 33.6875 34.8125 36.53125 
Q 39.546875 41.84375 41.421875 45.53125 
Q 43.3125 49.21875 43.3125 52.78125 
Q 43.3125 58.59375 39.234375 62.25 
Q 35.15625 65.921875 28.609375 65.921875 
Q 23.96875 65.921875 18.8125 64.3125 
Q 13.671875 62.703125 7.8125 59.421875 
L 7.8125 69.390625 
Q 13.765625 71.78125 18.9375 73 
Q 24.125 74.21875 28.421875 74.21875 
Q 39.75 74.21875 46.484375 68.546875 
Q 53.21875 62.890625 53.21875 53.421875 
Q 53.21875 48.921875 51.53125 44.890625 
Q 49.859375 40.875 45.40625 35.40625 
Q 44.1875 33.984375 37.640625 27.21875 
Q 31.109375 20.453125 19.1875 8.296875 
z
" id="DejaVuSans-50"/>
       </defs>
       <use xlink:href="#DejaVuSans-50"/>
       <use x="63.623047" xlink:href="#DejaVuSans-48"/>
      </g>
     </g>
    </g>
    <g id="xtick_3">
     <g id="line2d_3">
      <g>
       <use style="stroke:#000000;stroke-width:0.8;" x="248.856459" xlink:href="#m3f7a8b80ed" y="504"/>
      </g>
     </g>
     <g id="text_3">
      <!-- 40 -->
      <g transform="translate(242.493959 518.598438)scale(0.1 -0.1)">
       <defs>
        <path d="M 37.796875 64.3125 
L 12.890625 25.390625 
L 37.796875 25.390625 
z
M 35.203125 72.90625 
L 47.609375 72.90625 
L 47.609375 25.390625 
L 58.015625 25.390625 
L 58.015625 17.1875 
L 47.609375 17.1875 
L 47.609375 0 
L 37.796875 0 
L 37.796875 17.1875 
L 4.890625 17.1875 
L 4.890625 26.703125 
z
" id="DejaVuSans-52"/>
       </defs>
       <use xlink:href="#DejaVuSans-52"/>
       <use x="63.623047" xlink:href="#DejaVuSans-48"/>
      </g>
     </g>
    </g>
    <g id="xtick_4">
     <g id="line2d_4">
      <g>
       <use style="stroke:#000000;stroke-width:0.8;" x="315.602871" xlink:href="#m3f7a8b80ed" y="504"/>
      </g>
     </g>
     <g id="text_4">
      <!-- 60 -->
      <g transform="translate(309.240371 518.598438)scale(0.1 -0.1)">
       <defs>
        <path d="M 33.015625 40.375 
Q 26.375 40.375 22.484375 35.828125 
Q 18.609375 31.296875 18.609375 23.390625 
Q 18.609375 15.53125 22.484375 10.953125 
Q 26.375 6.390625 33.015625 6.390625 
Q 39.65625 6.390625 43.53125 10.953125 
Q 47.40625 15.53125 47.40625 23.390625 
Q 47.40625 31.296875 43.53125 35.828125 
Q 39.65625 40.375 33.015625 40.375 
z
M 52.59375 71.296875 
L 52.59375 62.3125 
Q 48.875 64.0625 45.09375 64.984375 
Q 41.3125 65.921875 37.59375 65.921875 
Q 27.828125 65.921875 22.671875 59.328125 
Q 17.53125 52.734375 16.796875 39.40625 
Q 19.671875 43.65625 24.015625 45.921875 
Q 28.375 48.1875 33.59375 48.1875 
Q 44.578125 48.1875 50.953125 41.515625 
Q 57.328125 34.859375 57.328125 23.390625 
Q 57.328125 12.15625 50.6875 5.359375 
Q 44.046875 -1.421875 33.015625 -1.421875 
Q 20.359375 -1.421875 13.671875 8.265625 
Q 6.984375 17.96875 6.984375 36.375 
Q 6.984375 53.65625 15.1875 63.9375 
Q 23.390625 74.21875 37.203125 74.21875 
Q 40.921875 74.21875 44.703125 73.484375 
Q 48.484375 72.75 52.59375 71.296875 
z
" id="DejaVuSans-54"/>
       </defs>
       <use xlink:href="#DejaVuSans-54"/>
       <use x="63.623047" xlink:href="#DejaVuSans-48"/>
      </g>
     </g>
    </g>
    <g id="xtick_5">
     <g id="line2d_5">
      <g>
       <use style="stroke:#000000;stroke-width:0.8;" x="382.349282" xlink:href="#m3f7a8b80ed" y="504"/>
      </g>
     </g>
     <g id="text_5">
      <!-- 80 -->
      <g transform="translate(375.986782 518.598438)scale(0.1 -0.1)">
       <defs>
        <path d="M 31.78125 34.625 
Q 24.75 34.625 20.71875 30.859375 
Q 16.703125 27.09375 16.703125 20.515625 
Q 16.703125 13.921875 20.71875 10.15625 
Q 24.75 6.390625 31.78125 6.390625 
Q 38.8125 6.390625 42.859375 10.171875 
Q 46.921875 13.96875 46.921875 20.515625 
Q 46.921875 27.09375 42.890625 30.859375 
Q 38.875 34.625 31.78125 34.625 
z
M 21.921875 38.8125 
Q 15.578125 40.375 12.03125 44.71875 
Q 8.5 49.078125 8.5 55.328125 
Q 8.5 64.0625 14.71875 69.140625 
Q 20.953125 74.21875 31.78125 74.21875 
Q 42.671875 74.21875 48.875 69.140625 
Q 55.078125 64.0625 55.078125 55.328125 
Q 55.078125 49.078125 51.53125 44.71875 
Q 48 40.375 41.703125 38.8125 
Q 48.828125 37.15625 52.796875 32.3125 
Q 56.78125 27.484375 56.78125 20.515625 
Q 56.78125 9.90625 50.3125 4.234375 
Q 43.84375 -1.421875 31.78125 -1.421875 
Q 19.734375 -1.421875 13.25 4.234375 
Q 6.78125 9.90625 6.78125 20.515625 
Q 6.78125 27.484375 10.78125 32.3125 
Q 14.796875 37.15625 21.921875 38.8125 
z
M 18.3125 54.390625 
Q 18.3125 48.734375 21.84375 45.5625 
Q 25.390625 42.390625 31.78125 42.390625 
Q 38.140625 42.390625 41.71875 45.5625 
Q 45.3125 48.734375 45.3125 54.390625 
Q 45.3125 60.0625 41.71875 63.234375 
Q 38.140625 66.40625 31.78125 66.40625 
Q 25.390625 66.40625 21.84375 63.234375 
Q 18.3125 60.0625 18.3125 54.390625 
z
" id="DejaVuSans-56"/>
       </defs>
       <use xlink:href="#DejaVuSans-56"/>
       <use x="63.623047" xlink:href="#DejaVuSans-48"/>
      </g>
     </g>
    </g>
    <g id="xtick_6">
     <g id="line2d_6">
      <g>
       <use style="stroke:#000000;stroke-width:0.8;" x="449.095694" xlink:href="#m3f7a8b80ed" y="504"/>
      </g>
     </g>
     <g id="text_6">
      <!-- 100 -->
      <g transform="translate(439.551944 518.598438)scale(0.1 -0.1)">
       <defs>
        <path d="M 12.40625 8.296875 
L 28.515625 8.296875 
L 28.515625 63.921875 
L 10.984375 60.40625 
L 10.984375 69.390625 
L 28.421875 72.90625 
L 38.28125 72.90625 
L 38.28125 8.296875 
L 54.390625 8.296875 
L 54.390625 0 
L 12.40625 0 
z
" id="DejaVuSans-49"/>
       </defs>
       <use xlink:href="#DejaVuSans-49"/>
       <use x="63.623047" xlink:href="#DejaVuSans-48"/>
       <use x="127.246094" xlink:href="#DejaVuSans-48"/>
      </g>
     </g>
    </g>
    <g id="xtick_7">
     <g id="line2d_7">
      <g>
       <use style="stroke:#000000;stroke-width:0.8;" x="515.842105" xlink:href="#m3f7a8b80ed" y="504"/>
      </g>
     </g>
     <g id="text_7">
      <!-- 120 -->
      <g transform="translate(506.298355 518.598438)scale(0.1 -0.1)">
       <use xlink:href="#DejaVuSans-49"/>
       <use x="63.623047" xlink:href="#DejaVuSans-50"/>
       <use x="127.246094" xlink:href="#DejaVuSans-48"/>
      </g>
     </g>
    </g>
    <g id="xtick_8">
     <g id="line2d_8">
      <g>
       <use style="stroke:#000000;stroke-width:0.8;" x="582.588517" xlink:href="#m3f7a8b80ed" y="504"/>
      </g>
     </g>
     <g id="text_8">
      <!-- 140 -->
      <g transform="translate(573.044767 518.598438)scale(0.1 -0.1)">
       <use xlink:href="#DejaVuSans-49"/>
       <use x="63.623047" xlink:href="#DejaVuSans-52"/>
       <use x="127.246094" xlink:href="#DejaVuSans-48"/>
      </g>
     </g>
    </g>
   </g>
   <g id="matplotlib.axis_2">
    <g id="ytick_1">
     <g id="line2d_9">
      <defs>
       <path d="M 0 0 
L -3.5 0 
" id="m3ccbd6cc34" style="stroke:#000000;stroke-width:0.8;"/>
      </defs>
      <g>
       <use style="stroke:#000000;stroke-width:0.8;" x="90" xlink:href="#m3ccbd6cc34" y="495.695655"/>
      </g>
     </g>
     <g id="text_9">
      <!-- 0 -->
      <g transform="translate(76.6375 499.494874)scale(0.1 -0.1)">
       <use xlink:href="#DejaVuSans-48"/>
      </g>
     </g>
    </g>
    <g id="ytick_2">
     <g id="line2d_10">
      <g>
       <use style="stroke:#000000;stroke-width:0.8;" x="90" xlink:href="#m3ccbd6cc34" y="429.005756"/>
      </g>
     </g>
     <g id="text_10">
      <!-- 10 -->
      <g transform="translate(70.275 432.804975)scale(0.1 -0.1)">
       <use xlink:href="#DejaVuSans-49"/>
       <use x="63.623047" xlink:href="#DejaVuSans-48"/>
      </g>
     </g>
    </g>
    <g id="ytick_3">
     <g id="line2d_11">
      <g>
       <use style="stroke:#000000;stroke-width:0.8;" x="90" xlink:href="#m3ccbd6cc34" y="362.315857"/>
      </g>
     </g>
     <g id="text_11">
      <!-- 20 -->
      <g transform="translate(70.275 366.115076)scale(0.1 -0.1)">
       <use xlink:href="#DejaVuSans-50"/>
       <use x="63.623047" xlink:href="#DejaVuSans-48"/>
      </g>
     </g>
    </g>
    <g id="ytick_4">
     <g id="line2d_12">
      <g>
       <use style="stroke:#000000;stroke-width:0.8;" x="90" xlink:href="#m3ccbd6cc34" y="295.625959"/>
      </g>
     </g>
     <g id="text_12">
      <!-- 30 -->
      <g transform="translate(70.275 299.425177)scale(0.1 -0.1)">
       <defs>
        <path d="M 40.578125 39.3125 
Q 47.65625 37.796875 51.625 33 
Q 55.609375 28.21875 55.609375 21.1875 
Q 55.609375 10.40625 48.1875 4.484375 
Q 40.765625 -1.421875 27.09375 -1.421875 
Q 22.515625 -1.421875 17.65625 -0.515625 
Q 12.796875 0.390625 7.625 2.203125 
L 7.625 11.71875 
Q 11.71875 9.328125 16.59375 8.109375 
Q 21.484375 6.890625 26.8125 6.890625 
Q 36.078125 6.890625 40.9375 10.546875 
Q 45.796875 14.203125 45.796875 21.1875 
Q 45.796875 27.640625 41.28125 31.265625 
Q 36.765625 34.90625 28.71875 34.90625 
L 20.21875 34.90625 
L 20.21875 43.015625 
L 29.109375 43.015625 
Q 36.375 43.015625 40.234375 45.921875 
Q 44.09375 48.828125 44.09375 54.296875 
Q 44.09375 59.90625 40.109375 62.90625 
Q 36.140625 65.921875 28.71875 65.921875 
Q 24.65625 65.921875 20.015625 65.03125 
Q 15.375 64.15625 9.8125 62.3125 
L 9.8125 71.09375 
Q 15.4375 72.65625 20.34375 73.4375 
Q 25.25 74.21875 29.59375 74.21875 
Q 40.828125 74.21875 47.359375 69.109375 
Q 53.90625 64.015625 53.90625 55.328125 
Q 53.90625 49.265625 50.4375 45.09375 
Q 46.96875 40.921875 40.578125 39.3125 
z
" id="DejaVuSans-51"/>
       </defs>
       <use xlink:href="#DejaVuSans-51"/>
       <use x="63.623047" xlink:href="#DejaVuSans-48"/>
      </g>
     </g>
    </g>
    <g id="ytick_5">
     <g id="line2d_13">
      <g>
       <use style="stroke:#000000;stroke-width:0.8;" x="90" xlink:href="#m3ccbd6cc34" y="228.93606"/>
      </g>
     </g>
     <g id="text_13">
      <!-- 40 -->
      <g transform="translate(70.275 232.735279)scale(0.1 -0.1)">
       <use xlink:href="#DejaVuSans-52"/>
       <use x="63.623047" xlink:href="#DejaVuSans-48"/>
      </g>
     </g>
    </g>
    <g id="ytick_6">
     <g id="line2d_14">
      <g>
       <use style="stroke:#000000;stroke-width:0.8;" x="90" xlink:href="#m3ccbd6cc34" y="162.246161"/>
      </g>
     </g>
     <g id="text_14">
      <!-- 50 -->
      <g transform="translate(70.275 166.04538)scale(0.1 -0.1)">
       <defs>
        <path d="M 10.796875 72.90625 
L 49.515625 72.90625 
L 49.515625 64.59375 
L 19.828125 64.59375 
L 19.828125 46.734375 
Q 21.96875 47.46875 24.109375 47.828125 
Q 26.265625 48.1875 28.421875 48.1875 
Q 40.625 48.1875 47.75 41.5 
Q 54.890625 34.8125 54.890625 23.390625 
Q 54.890625 11.625 47.5625 5.09375 
Q 40.234375 -1.421875 26.90625 -1.421875 
Q 22.3125 -1.421875 17.546875 -0.640625 
Q 12.796875 0.140625 7.71875 1.703125 
L 7.71875 11.625 
Q 12.109375 9.234375 16.796875 8.0625 
Q 21.484375 6.890625 26.703125 6.890625 
Q 35.15625 6.890625 40.078125 11.328125 
Q 45.015625 15.765625 45.015625 23.390625 
Q 45.015625 31 40.078125 35.4375 
Q 35.15625 39.890625 26.703125 39.890625 
Q 22.75 39.890625 18.8125 39.015625 
Q 14.890625 38.140625 10.796875 36.28125 
z
" id="DejaVuSans-53"/>
       </defs>
       <use xlink:href="#DejaVuSans-53"/>
       <use x="63.623047" xlink:href="#DejaVuSans-48"/>
      </g>
     </g>
    </g>
    <g id="ytick_7">
     <g id="line2d_15">
      <g>
       <use style="stroke:#000000;stroke-width:0.8;" x="90" xlink:href="#m3ccbd6cc34" y="95.556263"/>
      </g>
     </g>
     <g id="text_15">
      <!-- 60 -->
      <g transform="translate(70.275 99.355481)scale(0.1 -0.1)">
       <use xlink:href="#DejaVuSans-54"/>
       <use x="63.623047" xlink:href="#DejaVuSans-48"/>
      </g>
     </g>
    </g>
   </g>
   <g id="line2d_16">
    <path clip-path="url(#pa8e8b84466)" d="M 115.363636 235.60505 
L 118.700957 235.60505 
L 122.038278 175.584141 
L 125.375598 168.915151 
L 128.712919 175.584141 
L 132.050239 222.26707 
L 135.38756 235.60505 
L 138.72488 222.26707 
L 142.062201 195.591111 
L 145.399522 215.59808 
L 148.736842 215.59808 
L 152.074163 182.253131 
L 155.411483 222.26707 
L 158.748804 202.260101 
L 162.086124 215.59808 
L 165.423445 195.591111 
L 168.760766 182.253131 
L 172.098086 142.239192 
L 175.435407 188.922121 
L 178.772727 155.577171 
L 182.110048 148.908182 
L 185.447368 148.908182 
L 188.784689 128.901212 
L 192.12201 182.253131 
L 195.45933 168.915151 
L 198.796651 175.584141 
L 202.133971 148.908182 
L 205.471292 115.563232 
L 208.808612 182.253131 
L 212.145933 188.922121 
L 215.483254 155.577171 
L 218.820574 208.92909 
L 222.157895 188.922121 
L 225.495215 208.92909 
L 228.832536 188.922121 
L 232.169856 155.577171 
L 235.507177 142.239192 
L 238.844498 168.915151 
L 242.181818 148.908182 
L 245.519139 215.59808 
L 248.856459 168.915151 
L 252.19378 142.239192 
L 255.5311 155.577171 
L 258.868421 162.246161 
L 265.543062 162.246161 
L 268.880383 175.584141 
L 272.217703 162.246161 
L 275.555024 188.922121 
L 278.892344 175.584141 
L 285.566986 135.570202 
L 288.904306 162.246161 
L 292.241627 128.901212 
L 295.578947 168.915151 
L 298.916268 142.239192 
L 302.253589 148.908182 
L 308.92823 188.922121 
L 312.26555 128.901212 
L 315.602871 168.915151 
L 318.940191 162.246161 
L 322.277512 168.915151 
L 325.614833 162.246161 
L 328.952153 188.922121 
L 332.289474 195.591111 
L 335.626794 182.253131 
L 338.964115 162.246161 
L 342.301435 162.246161 
L 345.638756 128.901212 
L 348.976077 155.577171 
L 352.313397 202.260101 
L 355.650718 215.59808 
L 358.988038 222.26707 
L 362.325359 202.260101 
L 365.662679 215.59808 
L 369 188.922121 
L 375.674641 162.246161 
L 379.011962 182.253131 
L 382.349282 155.577171 
L 385.686603 175.584141 
L 389.023923 182.253131 
L 392.361244 208.92909 
L 395.698565 202.260101 
L 399.035885 148.908182 
L 402.373206 182.253131 
L 405.710526 135.570202 
L 409.047847 182.253131 
L 412.385167 195.591111 
L 415.722488 162.246161 
L 419.059809 142.239192 
L 422.397129 142.239192 
L 425.73445 122.232222 
L 429.07177 128.901212 
L 432.409091 168.915151 
L 435.746411 135.570202 
L 439.083732 168.915151 
L 442.421053 108.894242 
L 445.758373 175.584141 
L 449.095694 208.92909 
L 452.433014 228.93606 
L 455.770335 228.93606 
L 459.107656 202.260101 
L 462.444976 202.260101 
L 465.782297 215.59808 
L 469.119617 215.59808 
L 472.456938 155.577171 
L 475.794258 155.577171 
L 479.131579 168.915151 
L 482.4689 202.260101 
L 485.80622 195.591111 
L 489.143541 228.93606 
L 495.818182 175.584141 
L 499.155502 175.584141 
L 502.492823 122.232222 
L 505.830144 155.577171 
L 509.167464 168.915151 
L 512.504785 188.922121 
L 515.842105 182.253131 
L 519.179426 168.915151 
L 522.516746 142.239192 
L 525.854067 155.577171 
L 529.191388 182.253131 
L 532.528708 148.908182 
L 535.866029 142.239192 
L 539.203349 168.915151 
L 542.54067 168.915151 
L 549.215311 155.577171 
L 552.552632 155.577171 
L 555.889952 128.901212 
L 559.227273 142.239192 
L 565.901914 142.239192 
L 569.239234 108.894242 
L 572.576555 142.239192 
L 575.913876 168.915151 
L 579.251196 162.246161 
L 585.925837 135.570202 
L 589.263158 175.584141 
L 595.937799 162.246161 
L 599.27512 88.887273 
L 602.61244 148.908182 
L 605.949761 155.577171 
L 609.287081 108.894242 
L 612.624402 95.556263 
L 615.961722 102.225252 
L 619.299043 115.563232 
L 622.636364 182.253131 
L 622.636364 182.253131 
" style="fill:none;stroke:#1f77b4;stroke-linecap:square;stroke-width:1.5;"/>
   </g>
   <g id="line2d_17">
    <path clip-path="url(#pa8e8b84466)" d="M 115.363636 441.508765 
L 118.700957 450.060717 
L 122.038278 438.977602 
L 125.375598 438.558508 
L 128.712919 447.874765 
L 132.050239 426.651177 
L 135.38756 444.336704 
L 138.72488 457.625154 
L 142.062201 441.17274 
L 145.399522 431.735561 
L 148.736842 440.732129 
L 152.074163 429.284453 
L 155.411483 448.882683 
L 158.748804 410.07514 
L 162.086124 428.356059 
L 165.423445 422.931455 
L 168.760766 443.787167 
L 172.098086 430.39008 
L 175.435407 423.449642 
L 178.772727 434.925221 
L 182.110048 418.185486 
L 185.447368 437.959863 
L 188.784689 433.636245 
L 192.12201 411.722344 
L 195.45933 426.841937 
L 198.796651 428.906242 
L 202.133971 437.272305 
L 205.471292 435.636523 
L 208.808612 418.33299 
L 212.145933 436.840047 
L 215.483254 424.6806 
L 218.820574 431.869439 
L 222.157895 443.719163 
L 225.495215 402.515649 
L 228.832536 420.487627 
L 232.169856 447.985907 
L 235.507177 430.553569 
L 238.844498 418.192939 
L 242.181818 417.235147 
L 245.519139 420.701345 
L 248.856459 422.85417 
L 252.19378 424.041616 
L 255.5311 416.359728 
L 258.868421 404.597747 
L 262.205742 427.094461 
L 265.543062 412.27789 
L 268.880383 393.75672 
L 272.217703 422.36686 
L 275.555024 397.68979 
L 278.892344 403.678852 
L 282.229665 412.648002 
L 285.566986 399.27722 
L 288.904306 411.285952 
L 292.241627 426.514563 
L 295.578947 414.542875 
L 298.916268 409.715257 
L 302.253589 403.690956 
L 305.590909 418.310268 
L 308.92823 406.307976 
L 312.26555 412.857468 
L 315.602871 396.018139 
L 318.940191 416.508053 
L 322.277512 406.512925 
L 325.614833 441.428546 
L 328.952153 425.644635 
L 332.289474 411.169471 
L 335.626794 423.785798 
L 338.964115 424.621008 
L 342.301435 414.583934 
L 345.638756 422.727006 
L 348.976077 424.378121 
L 352.313397 429.765653 
L 355.650718 396.935045 
L 358.988038 404.924784 
L 362.325359 419.772548 
L 365.662679 410.028017 
L 369 425.626347 
L 372.337321 430.414625 
L 375.674641 411.035555 
L 379.011962 419.728441 
L 382.349282 431.503464 
L 385.686603 408.158434 
L 389.023923 409.102014 
L 392.361244 420.321547 
L 395.698565 432.147187 
L 399.035885 405.726631 
L 402.373206 426.417384 
L 405.710526 415.587661 
L 409.047847 422.759282 
L 412.385167 403.467896 
L 415.722488 407.349512 
L 419.059809 416.223852 
L 422.397129 413.075372 
L 425.73445 412.88791 
L 429.07177 402.367225 
L 432.409091 411.70431 
L 435.746411 416.233172 
L 439.083732 416.743318 
L 442.421053 395.503643 
L 445.758373 402.205931 
L 449.095694 421.267896 
L 452.433014 466.476769 
L 455.770335 471.538437 
L 459.107656 433.092029 
L 462.444976 452.210711 
L 465.782297 428.480176 
L 469.119617 441.912124 
L 472.456938 459.574463 
L 475.794258 427.427005 
L 479.131579 463.466892 
L 482.4689 430.845731 
L 485.80622 429.40902 
L 489.143541 450.289035 
L 492.480861 406.212279 
L 495.818182 436.231482 
L 499.155502 419.033238 
L 502.492823 425.456671 
L 505.830144 399.237725 
L 509.167464 403.521696 
L 512.504785 403.182368 
L 515.842105 385.186649 
L 519.179426 427.486393 
L 522.516746 381.45628 
L 525.854067 403.908485 
L 529.191388 393.460877 
L 532.528708 369.941365 
L 535.866029 384.414184 
L 539.203349 393.835145 
L 542.54067 427.442024 
L 545.87799 417.452592 
L 549.215311 409.187656 
L 552.552632 397.115023 
L 555.889952 423.941197 
L 559.227273 424.138333 
L 562.564593 414.539177 
L 565.901914 447.374077 
L 569.239234 408.278456 
L 572.576555 426.134886 
L 575.913876 401.318566 
L 579.251196 409.702348 
L 582.588517 413.337907 
L 585.925837 418.977071 
L 589.263158 399.268681 
L 592.600478 401.607593 
L 595.937799 402.434567 
L 599.27512 429.320395 
L 602.61244 393.200482 
L 605.949761 369.63392 
L 609.287081 413.706308 
L 612.624402 381.670853 
L 615.961722 406.828097 
L 619.299043 400.266837 
L 622.636364 396.199127 
L 622.636364 396.199127 
" style="fill:none;stroke:#ff7f0e;stroke-linecap:square;stroke-width:1.5;"/>
   </g>
   <g id="line2d_18">
    <path clip-path="url(#pa8e8b84466)" d="M 115.363636 476.780034 
L 118.700957 474.999396 
L 125.375598 473.935548 
L 128.712919 470.785175 
L 132.050239 471.15872 
L 135.38756 467.78843 
L 142.062201 461.683434 
L 145.399522 456.850409 
L 148.736842 457.810768 
L 152.074163 456.735569 
L 155.411483 458.371879 
L 158.748804 458.005307 
L 162.086124 460.096972 
L 165.423445 460.188755 
L 168.760766 462.074611 
L 172.098086 461.719354 
L 175.435407 459.591064 
L 178.772727 458.155127 
L 182.110048 454.522105 
L 185.447368 455.116181 
L 188.784689 453.477723 
L 192.12201 453.489365 
L 198.796651 453.265449 
L 202.133971 454.528556 
L 205.471292 452.991321 
L 208.808612 452.119231 
L 212.145933 453.098289 
L 215.483254 450.75006 
L 218.820574 452.858525 
L 222.157895 452.768884 
L 225.495215 450.171785 
L 228.832536 447.156561 
L 232.169856 447.205004 
L 235.507177 444.808522 
L 238.844498 443.050947 
L 242.181818 441.493448 
L 245.519139 438.628686 
L 248.856459 438.59137 
L 252.19378 439.971872 
L 255.5311 440.481105 
L 258.868421 438.975212 
L 262.205742 439.87352 
L 265.543062 441.580879 
L 268.880383 440.635143 
L 272.217703 441.895383 
L 275.555024 440.052772 
L 278.892344 438.392044 
L 282.229665 435.897571 
L 285.566986 432.848607 
L 288.904306 433.419354 
L 292.241627 437.205745 
L 295.578947 440.194587 
L 298.916268 441.566506 
L 302.253589 445.576157 
L 305.590909 447.592626 
L 308.92823 444.309274 
L 312.26555 442.898291 
L 315.602871 441.883909 
L 318.940191 438.247157 
L 322.277512 445.737403 
L 325.614833 448.257624 
L 328.952153 447.149227 
L 332.289474 446.911469 
L 335.626794 444.978505 
L 342.301435 439.190658 
L 345.638756 442.570293 
L 348.976077 444.335253 
L 352.313397 443.805992 
L 355.650718 438.968164 
L 358.988038 438.742896 
L 362.325359 437.439909 
L 365.662679 435.099837 
L 369 434.142735 
L 372.337321 437.978019 
L 375.674641 437.004377 
L 379.011962 436.417244 
L 382.349282 436.934279 
L 385.686603 436.534318 
L 389.023923 437.729686 
L 392.361244 442.611881 
L 395.698565 440.051372 
L 399.035885 442.157979 
L 402.373206 438.733462 
L 405.710526 439.148549 
L 409.047847 439.065847 
L 412.385167 434.421193 
L 415.722488 433.220391 
L 419.059809 436.384402 
L 422.397129 438.083052 
L 425.73445 437.880893 
L 429.07177 436.822314 
L 432.409091 439.011881 
L 435.746411 438.347991 
L 439.083732 436.956713 
L 442.421053 440.30245 
L 445.758373 438.15147 
L 449.095694 437.68569 
L 452.433014 484.232727 
L 455.770335 484.232727 
L 459.107656 482.953667 
L 462.444976 481.299093 
L 465.782297 478.309173 
L 469.119617 478.138832 
L 472.456938 475.409647 
L 475.794258 473.785735 
L 479.131579 473.05285 
L 482.4689 469.239722 
L 485.80622 465.774895 
L 489.143541 462.586534 
L 492.480861 459.573707 
L 495.818182 454.917218 
L 499.155502 456.233072 
L 502.492823 455.121734 
L 505.830144 457.509114 
L 509.167464 454.852598 
L 512.504785 455.581286 
L 515.842105 451.62144 
L 519.179426 448.437159 
L 522.516746 445.834407 
L 525.854067 444.862668 
L 529.191388 444.454103 
L 532.528708 443.661662 
L 535.866029 443.436427 
L 539.203349 445.49146 
L 542.54067 449.282054 
L 545.87799 449.01583 
L 549.215311 447.29796 
L 552.552632 449.372131 
L 555.889952 453.19396 
L 559.227273 450.477411 
L 562.564593 451.537893 
L 565.901914 451.139316 
L 569.239234 450.859552 
L 572.576555 451.228152 
L 579.251196 444.791945 
L 582.588517 439.125615 
L 585.925837 439.799194 
L 589.263158 438.850725 
L 592.600478 439.224009 
L 595.937799 440.819292 
L 599.27512 440.861371 
L 602.61244 440.727103 
L 605.949761 440.320524 
L 609.287081 438.549785 
L 612.624402 437.730313 
L 615.961722 442.235459 
L 619.299043 444.098284 
L 622.636364 442.106653 
L 622.636364 442.106653 
" style="fill:none;stroke:#2ca02c;stroke-linecap:square;stroke-width:1.5;"/>
   </g>
   <g id="patch_3">
    <path d="M 90 504 
L 90 69.12 
" style="fill:none;stroke:#000000;stroke-linecap:square;stroke-linejoin:miter;stroke-width:0.8;"/>
   </g>
   <g id="patch_4">
    <path d="M 648 504 
L 648 69.12 
" style="fill:none;stroke:#000000;stroke-linecap:square;stroke-linejoin:miter;stroke-width:0.8;"/>
   </g>
   <g id="patch_5">
    <path d="M 90 504 
L 648 504 
" style="fill:none;stroke:#000000;stroke-linecap:square;stroke-linejoin:miter;stroke-width:0.8;"/>
   </g>
   <g id="patch_6">
    <path d="M 90 69.12 
L 648 69.12 
" style="fill:none;stroke:#000000;stroke-linecap:square;stroke-linejoin:miter;stroke-width:0.8;"/>
   </g>
  </g>
 </g>
 <defs>
  <clipPath id="pa8e8b84466">
   <rect height="434.88" width="558" x="90" y="69.12"/>
  </clipPath>
 </defs>
</svg>
