<?xml version="1.0" encoding="utf-8" standalone="no"?>
<!DOCTYPE svg PUBLIC "-//W3C//DTD SVG 1.1//EN"
  "http://www.w3.org/Graphics/SVG/1.1/DTD/svg11.dtd">
<!-- Created with matplotlib (https://matplotlib.org/) -->
<svg height="576pt" version="1.1" viewBox="0 0 720 576" width="720pt" xmlns="http://www.w3.org/2000/svg" xmlns:xlink="http://www.w3.org/1999/xlink">
 <metadata>
  <rdf:RDF xmlns:cc="http://creativecommons.org/ns#" xmlns:dc="http://purl.org/dc/elements/1.1/" xmlns:rdf="http://www.w3.org/1999/02/22-rdf-syntax-ns#">
   <cc:Work>
    <dc:type rdf:resource="http://purl.org/dc/dcmitype/StillImage"/>
    <dc:date>2022-01-06T14:27:41.552519</dc:date>
    <dc:format>image/svg+xml</dc:format>
    <dc:creator>
     <cc:Agent>
      <dc:title>Matplotlib v3.3.4, https://matplotlib.org/</dc:title>
     </cc:Agent>
    </dc:creator>
   </cc:Work>
  </rdf:RDF>
 </metadata>
 <defs>
  <style type="text/css">*{stroke-linecap:butt;stroke-linejoin:round;}</style>
 </defs>
 <g id="figure_1">
  <g id="patch_1">
   <path d="M 0 576 
L 720 576 
L 720 0 
L 0 0 
z
" style="fill:none;"/>
  </g>
  <g id="axes_1">
   <g id="patch_2">
    <path d="M 90 504 
L 648 504 
L 648 69.12 
L 90 69.12 
z
" style="fill:#ffffff;"/>
   </g>
   <g id="matplotlib.axis_1">
    <g id="xtick_1">
     <g id="line2d_1">
      <defs>
       <path d="M 0 0 
L 0 3.5 
" id="ma8180dbcd5" style="stroke:#000000;stroke-width:0.8;"/>
      </defs>
      <g>
       <use style="stroke:#000000;stroke-width:0.8;" x="115.363636" xlink:href="#ma8180dbcd5" y="504"/>
      </g>
     </g>
     <g id="text_1">
      <!-- 0 -->
      <g transform="translate(112.182386 518.598438)scale(0.1 -0.1)">
       <defs>
        <path d="M 31.78125 66.40625 
Q 24.171875 66.40625 20.328125 58.90625 
Q 16.5 51.421875 16.5 36.375 
Q 16.5 21.390625 20.328125 13.890625 
Q 24.171875 6.390625 31.78125 6.390625 
Q 39.453125 6.390625 43.28125 13.890625 
Q 47.125 21.390625 47.125 36.375 
Q 47.125 51.421875 43.28125 58.90625 
Q 39.453125 66.40625 31.78125 66.40625 
z
M 31.78125 74.21875 
Q 44.046875 74.21875 50.515625 64.515625 
Q 56.984375 54.828125 56.984375 36.375 
Q 56.984375 17.96875 50.515625 8.265625 
Q 44.046875 -1.421875 31.78125 -1.421875 
Q 19.53125 -1.421875 13.0625 8.265625 
Q 6.59375 17.96875 6.59375 36.375 
Q 6.59375 54.828125 13.0625 64.515625 
Q 19.53125 74.21875 31.78125 74.21875 
z
" id="DejaVuSans-48"/>
       </defs>
       <use xlink:href="#DejaVuSans-48"/>
      </g>
     </g>
    </g>
    <g id="xtick_2">
     <g id="line2d_2">
      <g>
       <use style="stroke:#000000;stroke-width:0.8;" x="182.110048" xlink:href="#ma8180dbcd5" y="504"/>
      </g>
     </g>
     <g id="text_2">
      <!-- 20 -->
      <g transform="translate(175.747548 518.598438)scale(0.1 -0.1)">
       <defs>
        <path d="M 19.1875 8.296875 
L 53.609375 8.296875 
L 53.609375 0 
L 7.328125 0 
L 7.328125 8.296875 
Q 12.9375 14.109375 22.625 23.890625 
Q 32.328125 33.6875 34.8125 36.53125 
Q 39.546875 41.84375 41.421875 45.53125 
Q 43.3125 49.21875 43.3125 52.78125 
Q 43.3125 58.59375 39.234375 62.25 
Q 35.15625 65.921875 28.609375 65.921875 
Q 23.96875 65.921875 18.8125 64.3125 
Q 13.671875 62.703125 7.8125 59.421875 
L 7.8125 69.390625 
Q 13.765625 71.78125 18.9375 73 
Q 24.125 74.21875 28.421875 74.21875 
Q 39.75 74.21875 46.484375 68.546875 
Q 53.21875 62.890625 53.21875 53.421875 
Q 53.21875 48.921875 51.53125 44.890625 
Q 49.859375 40.875 45.40625 35.40625 
Q 44.1875 33.984375 37.640625 27.21875 
Q 31.109375 20.453125 19.1875 8.296875 
z
" id="DejaVuSans-50"/>
       </defs>
       <use xlink:href="#DejaVuSans-50"/>
       <use x="63.623047" xlink:href="#DejaVuSans-48"/>
      </g>
     </g>
    </g>
    <g id="xtick_3">
     <g id="line2d_3">
      <g>
       <use style="stroke:#000000;stroke-width:0.8;" x="248.856459" xlink:href="#ma8180dbcd5" y="504"/>
      </g>
     </g>
     <g id="text_3">
      <!-- 40 -->
      <g transform="translate(242.493959 518.598438)scale(0.1 -0.1)">
       <defs>
        <path d="M 37.796875 64.3125 
L 12.890625 25.390625 
L 37.796875 25.390625 
z
M 35.203125 72.90625 
L 47.609375 72.90625 
L 47.609375 25.390625 
L 58.015625 25.390625 
L 58.015625 17.1875 
L 47.609375 17.1875 
L 47.609375 0 
L 37.796875 0 
L 37.796875 17.1875 
L 4.890625 17.1875 
L 4.890625 26.703125 
z
" id="DejaVuSans-52"/>
       </defs>
       <use xlink:href="#DejaVuSans-52"/>
       <use x="63.623047" xlink:href="#DejaVuSans-48"/>
      </g>
     </g>
    </g>
    <g id="xtick_4">
     <g id="line2d_4">
      <g>
       <use style="stroke:#000000;stroke-width:0.8;" x="315.602871" xlink:href="#ma8180dbcd5" y="504"/>
      </g>
     </g>
     <g id="text_4">
      <!-- 60 -->
      <g transform="translate(309.240371 518.598438)scale(0.1 -0.1)">
       <defs>
        <path d="M 33.015625 40.375 
Q 26.375 40.375 22.484375 35.828125 
Q 18.609375 31.296875 18.609375 23.390625 
Q 18.609375 15.53125 22.484375 10.953125 
Q 26.375 6.390625 33.015625 6.390625 
Q 39.65625 6.390625 43.53125 10.953125 
Q 47.40625 15.53125 47.40625 23.390625 
Q 47.40625 31.296875 43.53125 35.828125 
Q 39.65625 40.375 33.015625 40.375 
z
M 52.59375 71.296875 
L 52.59375 62.3125 
Q 48.875 64.0625 45.09375 64.984375 
Q 41.3125 65.921875 37.59375 65.921875 
Q 27.828125 65.921875 22.671875 59.328125 
Q 17.53125 52.734375 16.796875 39.40625 
Q 19.671875 43.65625 24.015625 45.921875 
Q 28.375 48.1875 33.59375 48.1875 
Q 44.578125 48.1875 50.953125 41.515625 
Q 57.328125 34.859375 57.328125 23.390625 
Q 57.328125 12.15625 50.6875 5.359375 
Q 44.046875 -1.421875 33.015625 -1.421875 
Q 20.359375 -1.421875 13.671875 8.265625 
Q 6.984375 17.96875 6.984375 36.375 
Q 6.984375 53.65625 15.1875 63.9375 
Q 23.390625 74.21875 37.203125 74.21875 
Q 40.921875 74.21875 44.703125 73.484375 
Q 48.484375 72.75 52.59375 71.296875 
z
" id="DejaVuSans-54"/>
       </defs>
       <use xlink:href="#DejaVuSans-54"/>
       <use x="63.623047" xlink:href="#DejaVuSans-48"/>
      </g>
     </g>
    </g>
    <g id="xtick_5">
     <g id="line2d_5">
      <g>
       <use style="stroke:#000000;stroke-width:0.8;" x="382.349282" xlink:href="#ma8180dbcd5" y="504"/>
      </g>
     </g>
     <g id="text_5">
      <!-- 80 -->
      <g transform="translate(375.986782 518.598438)scale(0.1 -0.1)">
       <defs>
        <path d="M 31.78125 34.625 
Q 24.75 34.625 20.71875 30.859375 
Q 16.703125 27.09375 16.703125 20.515625 
Q 16.703125 13.921875 20.71875 10.15625 
Q 24.75 6.390625 31.78125 6.390625 
Q 38.8125 6.390625 42.859375 10.171875 
Q 46.921875 13.96875 46.921875 20.515625 
Q 46.921875 27.09375 42.890625 30.859375 
Q 38.875 34.625 31.78125 34.625 
z
M 21.921875 38.8125 
Q 15.578125 40.375 12.03125 44.71875 
Q 8.5 49.078125 8.5 55.328125 
Q 8.5 64.0625 14.71875 69.140625 
Q 20.953125 74.21875 31.78125 74.21875 
Q 42.671875 74.21875 48.875 69.140625 
Q 55.078125 64.0625 55.078125 55.328125 
Q 55.078125 49.078125 51.53125 44.71875 
Q 48 40.375 41.703125 38.8125 
Q 48.828125 37.15625 52.796875 32.3125 
Q 56.78125 27.484375 56.78125 20.515625 
Q 56.78125 9.90625 50.3125 4.234375 
Q 43.84375 -1.421875 31.78125 -1.421875 
Q 19.734375 -1.421875 13.25 4.234375 
Q 6.78125 9.90625 6.78125 20.515625 
Q 6.78125 27.484375 10.78125 32.3125 
Q 14.796875 37.15625 21.921875 38.8125 
z
M 18.3125 54.390625 
Q 18.3125 48.734375 21.84375 45.5625 
Q 25.390625 42.390625 31.78125 42.390625 
Q 38.140625 42.390625 41.71875 45.5625 
Q 45.3125 48.734375 45.3125 54.390625 
Q 45.3125 60.0625 41.71875 63.234375 
Q 38.140625 66.40625 31.78125 66.40625 
Q 25.390625 66.40625 21.84375 63.234375 
Q 18.3125 60.0625 18.3125 54.390625 
z
" id="DejaVuSans-56"/>
       </defs>
       <use xlink:href="#DejaVuSans-56"/>
       <use x="63.623047" xlink:href="#DejaVuSans-48"/>
      </g>
     </g>
    </g>
    <g id="xtick_6">
     <g id="line2d_6">
      <g>
       <use style="stroke:#000000;stroke-width:0.8;" x="449.095694" xlink:href="#ma8180dbcd5" y="504"/>
      </g>
     </g>
     <g id="text_6">
      <!-- 100 -->
      <g transform="translate(439.551944 518.598438)scale(0.1 -0.1)">
       <defs>
        <path d="M 12.40625 8.296875 
L 28.515625 8.296875 
L 28.515625 63.921875 
L 10.984375 60.40625 
L 10.984375 69.390625 
L 28.421875 72.90625 
L 38.28125 72.90625 
L 38.28125 8.296875 
L 54.390625 8.296875 
L 54.390625 0 
L 12.40625 0 
z
" id="DejaVuSans-49"/>
       </defs>
       <use xlink:href="#DejaVuSans-49"/>
       <use x="63.623047" xlink:href="#DejaVuSans-48"/>
       <use x="127.246094" xlink:href="#DejaVuSans-48"/>
      </g>
     </g>
    </g>
    <g id="xtick_7">
     <g id="line2d_7">
      <g>
       <use style="stroke:#000000;stroke-width:0.8;" x="515.842105" xlink:href="#ma8180dbcd5" y="504"/>
      </g>
     </g>
     <g id="text_7">
      <!-- 120 -->
      <g transform="translate(506.298355 518.598438)scale(0.1 -0.1)">
       <use xlink:href="#DejaVuSans-49"/>
       <use x="63.623047" xlink:href="#DejaVuSans-50"/>
       <use x="127.246094" xlink:href="#DejaVuSans-48"/>
      </g>
     </g>
    </g>
    <g id="xtick_8">
     <g id="line2d_8">
      <g>
       <use style="stroke:#000000;stroke-width:0.8;" x="582.588517" xlink:href="#ma8180dbcd5" y="504"/>
      </g>
     </g>
     <g id="text_8">
      <!-- 140 -->
      <g transform="translate(573.044767 518.598438)scale(0.1 -0.1)">
       <use xlink:href="#DejaVuSans-49"/>
       <use x="63.623047" xlink:href="#DejaVuSans-52"/>
       <use x="127.246094" xlink:href="#DejaVuSans-48"/>
      </g>
     </g>
    </g>
   </g>
   <g id="matplotlib.axis_2">
    <g id="ytick_1">
     <g id="line2d_9">
      <defs>
       <path d="M 0 0 
L -3.5 0 
" id="maa2d5fcf6f" style="stroke:#000000;stroke-width:0.8;"/>
      </defs>
      <g>
       <use style="stroke:#000000;stroke-width:0.8;" x="90" xlink:href="#maa2d5fcf6f" y="496.242488"/>
      </g>
     </g>
     <g id="text_9">
      <!-- 0 -->
      <g transform="translate(76.6375 500.041706)scale(0.1 -0.1)">
       <use xlink:href="#DejaVuSans-48"/>
      </g>
     </g>
    </g>
    <g id="ytick_2">
     <g id="line2d_10">
      <g>
       <use style="stroke:#000000;stroke-width:0.8;" x="90" xlink:href="#maa2d5fcf6f" y="429.462944"/>
      </g>
     </g>
     <g id="text_10">
      <!-- 10 -->
      <g transform="translate(70.275 433.262163)scale(0.1 -0.1)">
       <use xlink:href="#DejaVuSans-49"/>
       <use x="63.623047" xlink:href="#DejaVuSans-48"/>
      </g>
     </g>
    </g>
    <g id="ytick_3">
     <g id="line2d_11">
      <g>
       <use style="stroke:#000000;stroke-width:0.8;" x="90" xlink:href="#maa2d5fcf6f" y="362.683401"/>
      </g>
     </g>
     <g id="text_11">
      <!-- 20 -->
      <g transform="translate(70.275 366.482619)scale(0.1 -0.1)">
       <use xlink:href="#DejaVuSans-50"/>
       <use x="63.623047" xlink:href="#DejaVuSans-48"/>
      </g>
     </g>
    </g>
    <g id="ytick_4">
     <g id="line2d_12">
      <g>
       <use style="stroke:#000000;stroke-width:0.8;" x="90" xlink:href="#maa2d5fcf6f" y="295.903857"/>
      </g>
     </g>
     <g id="text_12">
      <!-- 30 -->
      <g transform="translate(70.275 299.703076)scale(0.1 -0.1)">
       <defs>
        <path d="M 40.578125 39.3125 
Q 47.65625 37.796875 51.625 33 
Q 55.609375 28.21875 55.609375 21.1875 
Q 55.609375 10.40625 48.1875 4.484375 
Q 40.765625 -1.421875 27.09375 -1.421875 
Q 22.515625 -1.421875 17.65625 -0.515625 
Q 12.796875 0.390625 7.625 2.203125 
L 7.625 11.71875 
Q 11.71875 9.328125 16.59375 8.109375 
Q 21.484375 6.890625 26.8125 6.890625 
Q 36.078125 6.890625 40.9375 10.546875 
Q 45.796875 14.203125 45.796875 21.1875 
Q 45.796875 27.640625 41.28125 31.265625 
Q 36.765625 34.90625 28.71875 34.90625 
L 20.21875 34.90625 
L 20.21875 43.015625 
L 29.109375 43.015625 
Q 36.375 43.015625 40.234375 45.921875 
Q 44.09375 48.828125 44.09375 54.296875 
Q 44.09375 59.90625 40.109375 62.90625 
Q 36.140625 65.921875 28.71875 65.921875 
Q 24.65625 65.921875 20.015625 65.03125 
Q 15.375 64.15625 9.8125 62.3125 
L 9.8125 71.09375 
Q 15.4375 72.65625 20.34375 73.4375 
Q 25.25 74.21875 29.59375 74.21875 
Q 40.828125 74.21875 47.359375 69.109375 
Q 53.90625 64.015625 53.90625 55.328125 
Q 53.90625 49.265625 50.4375 45.09375 
Q 46.96875 40.921875 40.578125 39.3125 
z
" id="DejaVuSans-51"/>
       </defs>
       <use xlink:href="#DejaVuSans-51"/>
       <use x="63.623047" xlink:href="#DejaVuSans-48"/>
      </g>
     </g>
    </g>
    <g id="ytick_5">
     <g id="line2d_13">
      <g>
       <use style="stroke:#000000;stroke-width:0.8;" x="90" xlink:href="#maa2d5fcf6f" y="229.124314"/>
      </g>
     </g>
     <g id="text_13">
      <!-- 40 -->
      <g transform="translate(70.275 232.923533)scale(0.1 -0.1)">
       <use xlink:href="#DejaVuSans-52"/>
       <use x="63.623047" xlink:href="#DejaVuSans-48"/>
      </g>
     </g>
    </g>
    <g id="ytick_6">
     <g id="line2d_14">
      <g>
       <use style="stroke:#000000;stroke-width:0.8;" x="90" xlink:href="#maa2d5fcf6f" y="162.34477"/>
      </g>
     </g>
     <g id="text_14">
      <!-- 50 -->
      <g transform="translate(70.275 166.143989)scale(0.1 -0.1)">
       <defs>
        <path d="M 10.796875 72.90625 
L 49.515625 72.90625 
L 49.515625 64.59375 
L 19.828125 64.59375 
L 19.828125 46.734375 
Q 21.96875 47.46875 24.109375 47.828125 
Q 26.265625 48.1875 28.421875 48.1875 
Q 40.625 48.1875 47.75 41.5 
Q 54.890625 34.8125 54.890625 23.390625 
Q 54.890625 11.625 47.5625 5.09375 
Q 40.234375 -1.421875 26.90625 -1.421875 
Q 22.3125 -1.421875 17.546875 -0.640625 
Q 12.796875 0.140625 7.71875 1.703125 
L 7.71875 11.625 
Q 12.109375 9.234375 16.796875 8.0625 
Q 21.484375 6.890625 26.703125 6.890625 
Q 35.15625 6.890625 40.078125 11.328125 
Q 45.015625 15.765625 45.015625 23.390625 
Q 45.015625 31 40.078125 35.4375 
Q 35.15625 39.890625 26.703125 39.890625 
Q 22.75 39.890625 18.8125 39.015625 
Q 14.890625 38.140625 10.796875 36.28125 
z
" id="DejaVuSans-53"/>
       </defs>
       <use xlink:href="#DejaVuSans-53"/>
       <use x="63.623047" xlink:href="#DejaVuSans-48"/>
      </g>
     </g>
    </g>
    <g id="ytick_7">
     <g id="line2d_15">
      <g>
       <use style="stroke:#000000;stroke-width:0.8;" x="90" xlink:href="#maa2d5fcf6f" y="95.565227"/>
      </g>
     </g>
     <g id="text_15">
      <!-- 60 -->
      <g transform="translate(70.275 99.364446)scale(0.1 -0.1)">
       <use xlink:href="#DejaVuSans-54"/>
       <use x="63.623047" xlink:href="#DejaVuSans-48"/>
      </g>
     </g>
    </g>
   </g>
   <g id="line2d_16">
    <path clip-path="url(#pf620956d17)" d="M 115.363636 215.768405 
L 118.700957 215.768405 
L 122.038278 202.412497 
L 125.375598 195.734542 
L 128.712919 235.802268 
L 132.050239 189.056588 
L 135.38756 215.768405 
L 138.72488 209.090451 
L 142.062201 229.124314 
L 145.399522 215.768405 
L 148.736842 215.768405 
L 152.074163 182.378634 
L 155.411483 189.056588 
L 158.748804 229.124314 
L 162.086124 202.412497 
L 165.423445 202.412497 
L 168.760766 182.378634 
L 172.098086 202.412497 
L 175.435407 202.412497 
L 178.772727 182.378634 
L 182.110048 182.378634 
L 185.447368 209.090451 
L 188.784689 222.44636 
L 192.12201 215.768405 
L 195.45933 202.412497 
L 198.796651 169.022725 
L 202.133971 175.700679 
L 205.471292 175.700679 
L 208.808612 162.34477 
L 212.145933 189.056588 
L 215.483254 195.734542 
L 218.820574 155.666816 
L 222.157895 169.022725 
L 225.495215 169.022725 
L 228.832536 195.734542 
L 232.169856 175.700679 
L 235.507177 162.34477 
L 238.844498 175.700679 
L 242.181818 142.310907 
L 245.519139 162.34477 
L 248.856459 148.988862 
L 252.19378 175.700679 
L 255.5311 169.022725 
L 258.868421 148.988862 
L 262.205742 182.378634 
L 265.543062 169.022725 
L 268.880383 182.378634 
L 272.217703 155.666816 
L 275.555024 169.022725 
L 278.892344 169.022725 
L 282.229665 202.412497 
L 285.566986 189.056588 
L 295.578947 189.056588 
L 298.916268 142.310907 
L 302.253589 148.988862 
L 305.590909 202.412497 
L 312.26555 202.412497 
L 315.602871 142.310907 
L 318.940191 189.056588 
L 322.277512 175.700679 
L 325.614833 175.700679 
L 328.952153 202.412497 
L 332.289474 182.378634 
L 335.626794 175.700679 
L 338.964115 182.378634 
L 342.301435 162.34477 
L 345.638756 162.34477 
L 352.313397 148.988862 
L 355.650718 135.632953 
L 358.988038 175.700679 
L 365.662679 162.34477 
L 369 148.988862 
L 372.337321 155.666816 
L 375.674641 148.988862 
L 379.011962 88.887273 
L 382.349282 142.310907 
L 385.686603 155.666816 
L 389.023923 122.277044 
L 392.361244 135.632953 
L 395.698565 175.700679 
L 399.035885 189.056588 
L 402.373206 142.310907 
L 405.710526 162.34477 
L 409.047847 169.022725 
L 415.722488 155.666816 
L 419.059809 169.022725 
L 422.397129 169.022725 
L 425.73445 148.988862 
L 429.07177 148.988862 
L 432.409091 169.022725 
L 435.746411 148.988862 
L 439.083732 162.34477 
L 442.421053 148.988862 
L 445.758373 148.988862 
L 449.095694 189.056588 
L 452.433014 255.836131 
L 459.107656 255.836131 
L 462.444976 235.802268 
L 465.782297 182.378634 
L 469.119617 162.34477 
L 472.456938 209.090451 
L 475.794258 209.090451 
L 479.131579 195.734542 
L 482.4689 202.412497 
L 485.80622 202.412497 
L 489.143541 195.734542 
L 492.480861 209.090451 
L 499.155502 209.090451 
L 502.492823 202.412497 
L 505.830144 229.124314 
L 509.167464 189.056588 
L 512.504785 182.378634 
L 515.842105 215.768405 
L 519.179426 229.124314 
L 525.854067 202.412497 
L 529.191388 202.412497 
L 532.528708 195.734542 
L 535.866029 155.666816 
L 539.203349 195.734542 
L 542.54067 202.412497 
L 545.87799 195.734542 
L 549.215311 202.412497 
L 555.889952 175.700679 
L 559.227273 195.734542 
L 562.564593 202.412497 
L 565.901914 128.954999 
L 569.239234 142.310907 
L 572.576555 162.34477 
L 575.913876 142.310907 
L 579.251196 175.700679 
L 585.925837 148.988862 
L 589.263158 142.310907 
L 592.600478 148.988862 
L 599.27512 148.988862 
L 602.61244 155.666816 
L 605.949761 148.988862 
L 609.287081 135.632953 
L 612.624402 155.666816 
L 615.961722 169.022725 
L 619.299043 162.34477 
L 622.636364 182.378634 
L 622.636364 182.378634 
" style="fill:none;stroke:#1f77b4;stroke-linecap:square;stroke-width:1.5;"/>
   </g>
   <g id="line2d_17">
    <path clip-path="url(#pf620956d17)" d="M 115.363636 452.497122 
L 118.700957 446.36524 
L 122.038278 422.111144 
L 125.375598 394.588028 
L 128.712919 411.755575 
L 132.050239 421.964667 
L 135.38756 432.755695 
L 138.72488 420.413082 
L 142.062201 428.868394 
L 145.399522 422.370079 
L 148.736842 432.132367 
L 152.074163 448.519714 
L 155.411483 414.724294 
L 158.748804 401.811234 
L 162.086124 409.730208 
L 165.423445 406.954188 
L 168.760766 373.941369 
L 172.098086 403.431256 
L 175.435407 411.095043 
L 178.772727 421.970955 
L 182.110048 399.316692 
L 185.447368 416.668692 
L 188.784689 395.385887 
L 192.12201 396.295696 
L 195.45933 389.683175 
L 198.796651 430.319757 
L 202.133971 407.886975 
L 205.471292 412.966155 
L 208.808612 394.86804 
L 212.145933 387.821913 
L 215.483254 393.534454 
L 218.820574 404.684922 
L 222.157895 383.431375 
L 225.495215 407.001825 
L 228.832536 392.356941 
L 232.169856 385.852576 
L 235.507177 397.457952 
L 238.844498 346.210422 
L 242.181818 371.8846 
L 245.519139 387.44474 
L 248.856459 376.024637 
L 252.19378 404.831296 
L 255.5311 370.415053 
L 258.868421 390.579326 
L 262.205742 405.255127 
L 265.543062 403.810602 
L 268.880383 409.195686 
L 272.217703 364.678939 
L 275.555024 392.963099 
L 278.892344 385.168337 
L 282.229665 398.945991 
L 285.566986 400.619331 
L 288.904306 374.955384 
L 292.241627 398.578822 
L 295.578947 407.392632 
L 298.916268 404.132035 
L 302.253589 428.019503 
L 305.590909 400.71744 
L 308.92823 403.767896 
L 312.26555 407.603232 
L 315.602871 404.749001 
L 318.940191 393.92868 
L 322.277512 395.486659 
L 328.952153 432.778965 
L 332.289474 392.358838 
L 335.626794 424.205992 
L 338.964115 392.863199 
L 342.301435 397.830575 
L 345.638756 373.540301 
L 348.976077 401.344174 
L 352.313397 352.278928 
L 355.650718 359.166695 
L 358.988038 393.305791 
L 362.325359 383.122778 
L 365.662679 382.622592 
L 369 335.88436 
L 372.337321 371.802587 
L 375.674641 374.050201 
L 379.011962 395.321506 
L 382.349282 368.472219 
L 385.686603 381.459526 
L 389.023923 387.986246 
L 392.361244 369.949754 
L 395.698565 367.426054 
L 399.035885 363.224291 
L 402.373206 368.997465 
L 405.710526 395.956657 
L 409.047847 383.326555 
L 412.385167 394.963655 
L 415.722488 389.816873 
L 419.059809 379.996355 
L 422.397129 387.957171 
L 425.73445 380.046752 
L 429.07177 415.777273 
L 432.409091 365.160591 
L 435.746411 377.750876 
L 439.083732 357.658926 
L 442.421053 379.073696 
L 445.758373 381.745413 
L 449.095694 379.69172 
L 452.433014 467.751006 
L 455.770335 436.040761 
L 459.107656 444.887754 
L 462.444976 443.444129 
L 465.782297 447.202925 
L 469.119617 440.625273 
L 472.456938 442.211512 
L 475.794258 437.366854 
L 479.131579 441.703972 
L 482.4689 414.941132 
L 485.80622 417.537848 
L 489.143541 430.531298 
L 492.480861 457.202153 
L 495.818182 433.18459 
L 499.155502 420.510132 
L 502.492823 423.409954 
L 505.830144 424.366682 
L 509.167464 398.144788 
L 512.504785 396.760727 
L 515.842105 401.82751 
L 519.179426 409.233188 
L 522.516746 427.350638 
L 525.854067 398.600979 
L 529.191388 414.412574 
L 532.528708 390.521992 
L 535.866029 399.558751 
L 539.203349 396.213275 
L 542.54067 426.348404 
L 545.87799 406.574845 
L 549.215311 402.18338 
L 552.552632 399.306054 
L 555.889952 410.681522 
L 559.227273 405.444738 
L 562.564593 395.979838 
L 565.901914 377.018664 
L 569.239234 382.392194 
L 572.576555 388.364024 
L 579.251196 356.198022 
L 582.588517 373.196708 
L 585.925837 389.169333 
L 589.263158 368.423316 
L 592.600478 363.361665 
L 595.937799 355.049064 
L 599.27512 358.090936 
L 602.61244 374.608141 
L 605.949761 395.921578 
L 609.287081 357.051849 
L 612.624402 364.198082 
L 615.961722 352.515274 
L 619.299043 391.797821 
L 622.636364 395.573367 
L 622.636364 395.573367 
" style="fill:none;stroke:#ff7f0e;stroke-linecap:square;stroke-width:1.5;"/>
   </g>
   <g id="line2d_18">
    <path clip-path="url(#pf620956d17)" d="M 115.363636 473.634357 
L 118.700957 469.368907 
L 122.038278 466.150786 
L 125.375598 465.567397 
L 135.38756 463.125118 
L 138.72488 462.012459 
L 142.062201 461.643242 
L 145.399522 459.568858 
L 148.736842 458.757883 
L 152.074163 457.277766 
L 155.411483 455.558407 
L 158.748804 451.35927 
L 162.086124 447.509754 
L 165.423445 444.983883 
L 168.760766 445.48261 
L 172.098086 444.687179 
L 175.435407 441.493775 
L 178.772727 440.65568 
L 182.110048 440.276658 
L 185.447368 439.491335 
L 188.784689 437.714794 
L 192.12201 434.949562 
L 195.45933 434.229466 
L 202.133971 434.017409 
L 205.471292 430.349714 
L 208.808612 423.486456 
L 212.145933 418.691831 
L 215.483254 421.277359 
L 218.820574 417.109703 
L 222.157895 413.700489 
L 225.495215 414.167476 
L 228.832536 411.905339 
L 232.169856 410.47921 
L 235.507177 411.142795 
L 238.844498 406.957949 
L 242.181818 404.548701 
L 245.519139 413.105973 
L 248.856459 412.282342 
L 252.19378 407.734078 
L 255.5311 413.483242 
L 258.868421 406.300779 
L 262.205742 413.412924 
L 265.543062 416.696408 
L 268.880383 418.897305 
L 272.217703 419.598494 
L 275.555024 420.730003 
L 278.892344 419.917273 
L 282.229665 420.179312 
L 285.566986 415.005301 
L 288.904306 415.076252 
L 292.241627 420.677413 
L 295.578947 425.526043 
L 298.916268 419.129969 
L 302.253589 422.487306 
L 305.590909 417.99883 
L 308.92823 417.909105 
L 312.26555 418.28306 
L 315.602871 418.430727 
L 318.940191 415.404068 
L 325.614833 416.681795 
L 328.952153 418.04451 
L 332.289474 415.855864 
L 335.626794 415.037222 
L 338.964115 409.952984 
L 342.301435 416.102305 
L 345.638756 409.094942 
L 348.976077 411.199629 
L 352.313397 404.710865 
L 355.650718 407.127295 
L 358.988038 411.336209 
L 362.325359 412.990985 
L 365.662679 412.460737 
L 369 408.168054 
L 372.337321 414.860808 
L 375.674641 414.959954 
L 379.011962 410.420516 
L 382.349282 409.308491 
L 385.686603 409.518063 
L 389.023923 412.162649 
L 392.361244 408.576851 
L 395.698565 407.961366 
L 399.035885 413.835922 
L 402.373206 421.466274 
L 405.710526 420.148466 
L 409.047847 421.676202 
L 412.385167 421.742544 
L 415.722488 418.337911 
L 419.059809 416.39617 
L 422.397129 416.589553 
L 425.73445 417.018184 
L 429.07177 419.740386 
L 432.409091 413.910478 
L 435.746411 407.635604 
L 439.083732 407.599144 
L 442.421053 409.644075 
L 445.758373 413.434758 
L 449.095694 412.71693 
L 452.433014 484.232727 
L 455.770335 484.232727 
L 459.107656 482.539496 
L 462.444976 479.084639 
L 465.782297 477.587641 
L 469.119617 475.146815 
L 472.456938 473.012155 
L 475.794258 472.133644 
L 479.131579 469.313923 
L 482.4689 467.813474 
L 485.80622 464.117621 
L 489.143541 463.316677 
L 492.480861 464.209188 
L 499.155502 457.830545 
L 502.492823 452.716841 
L 505.830144 455.175324 
L 509.167464 455.714528 
L 512.504785 452.082749 
L 515.842105 448.915771 
L 519.179426 447.913842 
L 522.516746 448.325559 
L 525.854067 446.894026 
L 529.191388 441.717095 
L 532.528708 443.516244 
L 535.866029 441.455782 
L 539.203349 437.625346 
L 542.54067 438.618528 
L 545.87799 438.750399 
L 549.215311 436.499556 
L 552.552632 436.28534 
L 555.889952 434.724303 
L 559.227273 429.743138 
L 562.564593 428.146071 
L 569.239234 420.00985 
L 572.576555 421.679695 
L 575.913876 421.139621 
L 579.251196 424.02327 
L 582.588517 425.005652 
L 585.925837 419.006108 
L 589.263158 417.89834 
L 592.600478 418.489481 
L 595.937799 427.637283 
L 599.27512 424.130344 
L 602.61244 423.845831 
L 605.949761 415.977383 
L 609.287081 418.927602 
L 612.624402 414.584499 
L 615.961722 411.527829 
L 619.299043 413.371235 
L 622.636364 412.834022 
L 622.636364 412.834022 
" style="fill:none;stroke:#2ca02c;stroke-linecap:square;stroke-width:1.5;"/>
   </g>
   <g id="patch_3">
    <path d="M 90 504 
L 90 69.12 
" style="fill:none;stroke:#000000;stroke-linecap:square;stroke-linejoin:miter;stroke-width:0.8;"/>
   </g>
   <g id="patch_4">
    <path d="M 648 504 
L 648 69.12 
" style="fill:none;stroke:#000000;stroke-linecap:square;stroke-linejoin:miter;stroke-width:0.8;"/>
   </g>
   <g id="patch_5">
    <path d="M 90 504 
L 648 504 
" style="fill:none;stroke:#000000;stroke-linecap:square;stroke-linejoin:miter;stroke-width:0.8;"/>
   </g>
   <g id="patch_6">
    <path d="M 90 69.12 
L 648 69.12 
" style="fill:none;stroke:#000000;stroke-linecap:square;stroke-linejoin:miter;stroke-width:0.8;"/>
   </g>
  </g>
 </g>
 <defs>
  <clipPath id="pf620956d17">
   <rect height="434.88" width="558" x="90" y="69.12"/>
  </clipPath>
 </defs>
</svg>
