<?xml version="1.0" encoding="utf-8" standalone="no"?>
<!DOCTYPE svg PUBLIC "-//W3C//DTD SVG 1.1//EN"
  "http://www.w3.org/Graphics/SVG/1.1/DTD/svg11.dtd">
<!-- Created with matplotlib (https://matplotlib.org/) -->
<svg height="576pt" version="1.1" viewBox="0 0 720 576" width="720pt" xmlns="http://www.w3.org/2000/svg" xmlns:xlink="http://www.w3.org/1999/xlink">
 <metadata>
  <rdf:RDF xmlns:cc="http://creativecommons.org/ns#" xmlns:dc="http://purl.org/dc/elements/1.1/" xmlns:rdf="http://www.w3.org/1999/02/22-rdf-syntax-ns#">
   <cc:Work>
    <dc:type rdf:resource="http://purl.org/dc/dcmitype/StillImage"/>
    <dc:date>2022-08-19T10:12:00.761442</dc:date>
    <dc:format>image/svg+xml</dc:format>
    <dc:creator>
     <cc:Agent>
      <dc:title>Matplotlib v3.3.4, https://matplotlib.org/</dc:title>
     </cc:Agent>
    </dc:creator>
   </cc:Work>
  </rdf:RDF>
 </metadata>
 <defs>
  <style type="text/css">*{stroke-linecap:butt;stroke-linejoin:round;}</style>
 </defs>
 <g id="figure_1">
  <g id="patch_1">
   <path d="M 0 576 
L 720 576 
L 720 0 
L 0 0 
z
" style="fill:none;"/>
  </g>
  <g id="axes_1">
   <g id="patch_2">
    <path d="M 90 504 
L 648 504 
L 648 69.12 
L 90 69.12 
z
" style="fill:#ffffff;"/>
   </g>
   <g id="matplotlib.axis_1">
    <g id="xtick_1">
     <g id="line2d_1">
      <defs>
       <path d="M 0 0 
L 0 3.5 
" id="mbcb4555c15" style="stroke:#000000;stroke-width:0.8;"/>
      </defs>
      <g>
       <use style="stroke:#000000;stroke-width:0.8;" x="115.363636" xlink:href="#mbcb4555c15" y="504"/>
      </g>
     </g>
     <g id="text_1">
      <!-- 0 -->
      <g transform="translate(112.182386 518.598438)scale(0.1 -0.1)">
       <defs>
        <path d="M 31.78125 66.40625 
Q 24.171875 66.40625 20.328125 58.90625 
Q 16.5 51.421875 16.5 36.375 
Q 16.5 21.390625 20.328125 13.890625 
Q 24.171875 6.390625 31.78125 6.390625 
Q 39.453125 6.390625 43.28125 13.890625 
Q 47.125 21.390625 47.125 36.375 
Q 47.125 51.421875 43.28125 58.90625 
Q 39.453125 66.40625 31.78125 66.40625 
z
M 31.78125 74.21875 
Q 44.046875 74.21875 50.515625 64.515625 
Q 56.984375 54.828125 56.984375 36.375 
Q 56.984375 17.96875 50.515625 8.265625 
Q 44.046875 -1.421875 31.78125 -1.421875 
Q 19.53125 -1.421875 13.0625 8.265625 
Q 6.59375 17.96875 6.59375 36.375 
Q 6.59375 54.828125 13.0625 64.515625 
Q 19.53125 74.21875 31.78125 74.21875 
z
" id="DejaVuSans-48"/>
       </defs>
       <use xlink:href="#DejaVuSans-48"/>
      </g>
     </g>
    </g>
    <g id="xtick_2">
     <g id="line2d_2">
      <g>
       <use style="stroke:#000000;stroke-width:0.8;" x="188.352518" xlink:href="#mbcb4555c15" y="504"/>
      </g>
     </g>
     <g id="text_2">
      <!-- 20 -->
      <g transform="translate(181.990018 518.598438)scale(0.1 -0.1)">
       <defs>
        <path d="M 19.1875 8.296875 
L 53.609375 8.296875 
L 53.609375 0 
L 7.328125 0 
L 7.328125 8.296875 
Q 12.9375 14.109375 22.625 23.890625 
Q 32.328125 33.6875 34.8125 36.53125 
Q 39.546875 41.84375 41.421875 45.53125 
Q 43.3125 49.21875 43.3125 52.78125 
Q 43.3125 58.59375 39.234375 62.25 
Q 35.15625 65.921875 28.609375 65.921875 
Q 23.96875 65.921875 18.8125 64.3125 
Q 13.671875 62.703125 7.8125 59.421875 
L 7.8125 69.390625 
Q 13.765625 71.78125 18.9375 73 
Q 24.125 74.21875 28.421875 74.21875 
Q 39.75 74.21875 46.484375 68.546875 
Q 53.21875 62.890625 53.21875 53.421875 
Q 53.21875 48.921875 51.53125 44.890625 
Q 49.859375 40.875 45.40625 35.40625 
Q 44.1875 33.984375 37.640625 27.21875 
Q 31.109375 20.453125 19.1875 8.296875 
z
" id="DejaVuSans-50"/>
       </defs>
       <use xlink:href="#DejaVuSans-50"/>
       <use x="63.623047" xlink:href="#DejaVuSans-48"/>
      </g>
     </g>
    </g>
    <g id="xtick_3">
     <g id="line2d_3">
      <g>
       <use style="stroke:#000000;stroke-width:0.8;" x="261.3414" xlink:href="#mbcb4555c15" y="504"/>
      </g>
     </g>
     <g id="text_3">
      <!-- 40 -->
      <g transform="translate(254.9789 518.598438)scale(0.1 -0.1)">
       <defs>
        <path d="M 37.796875 64.3125 
L 12.890625 25.390625 
L 37.796875 25.390625 
z
M 35.203125 72.90625 
L 47.609375 72.90625 
L 47.609375 25.390625 
L 58.015625 25.390625 
L 58.015625 17.1875 
L 47.609375 17.1875 
L 47.609375 0 
L 37.796875 0 
L 37.796875 17.1875 
L 4.890625 17.1875 
L 4.890625 26.703125 
z
" id="DejaVuSans-52"/>
       </defs>
       <use xlink:href="#DejaVuSans-52"/>
       <use x="63.623047" xlink:href="#DejaVuSans-48"/>
      </g>
     </g>
    </g>
    <g id="xtick_4">
     <g id="line2d_4">
      <g>
       <use style="stroke:#000000;stroke-width:0.8;" x="334.330281" xlink:href="#mbcb4555c15" y="504"/>
      </g>
     </g>
     <g id="text_4">
      <!-- 60 -->
      <g transform="translate(327.967781 518.598438)scale(0.1 -0.1)">
       <defs>
        <path d="M 33.015625 40.375 
Q 26.375 40.375 22.484375 35.828125 
Q 18.609375 31.296875 18.609375 23.390625 
Q 18.609375 15.53125 22.484375 10.953125 
Q 26.375 6.390625 33.015625 6.390625 
Q 39.65625 6.390625 43.53125 10.953125 
Q 47.40625 15.53125 47.40625 23.390625 
Q 47.40625 31.296875 43.53125 35.828125 
Q 39.65625 40.375 33.015625 40.375 
z
M 52.59375 71.296875 
L 52.59375 62.3125 
Q 48.875 64.0625 45.09375 64.984375 
Q 41.3125 65.921875 37.59375 65.921875 
Q 27.828125 65.921875 22.671875 59.328125 
Q 17.53125 52.734375 16.796875 39.40625 
Q 19.671875 43.65625 24.015625 45.921875 
Q 28.375 48.1875 33.59375 48.1875 
Q 44.578125 48.1875 50.953125 41.515625 
Q 57.328125 34.859375 57.328125 23.390625 
Q 57.328125 12.15625 50.6875 5.359375 
Q 44.046875 -1.421875 33.015625 -1.421875 
Q 20.359375 -1.421875 13.671875 8.265625 
Q 6.984375 17.96875 6.984375 36.375 
Q 6.984375 53.65625 15.1875 63.9375 
Q 23.390625 74.21875 37.203125 74.21875 
Q 40.921875 74.21875 44.703125 73.484375 
Q 48.484375 72.75 52.59375 71.296875 
z
" id="DejaVuSans-54"/>
       </defs>
       <use xlink:href="#DejaVuSans-54"/>
       <use x="63.623047" xlink:href="#DejaVuSans-48"/>
      </g>
     </g>
    </g>
    <g id="xtick_5">
     <g id="line2d_5">
      <g>
       <use style="stroke:#000000;stroke-width:0.8;" x="407.319163" xlink:href="#mbcb4555c15" y="504"/>
      </g>
     </g>
     <g id="text_5">
      <!-- 80 -->
      <g transform="translate(400.956663 518.598438)scale(0.1 -0.1)">
       <defs>
        <path d="M 31.78125 34.625 
Q 24.75 34.625 20.71875 30.859375 
Q 16.703125 27.09375 16.703125 20.515625 
Q 16.703125 13.921875 20.71875 10.15625 
Q 24.75 6.390625 31.78125 6.390625 
Q 38.8125 6.390625 42.859375 10.171875 
Q 46.921875 13.96875 46.921875 20.515625 
Q 46.921875 27.09375 42.890625 30.859375 
Q 38.875 34.625 31.78125 34.625 
z
M 21.921875 38.8125 
Q 15.578125 40.375 12.03125 44.71875 
Q 8.5 49.078125 8.5 55.328125 
Q 8.5 64.0625 14.71875 69.140625 
Q 20.953125 74.21875 31.78125 74.21875 
Q 42.671875 74.21875 48.875 69.140625 
Q 55.078125 64.0625 55.078125 55.328125 
Q 55.078125 49.078125 51.53125 44.71875 
Q 48 40.375 41.703125 38.8125 
Q 48.828125 37.15625 52.796875 32.3125 
Q 56.78125 27.484375 56.78125 20.515625 
Q 56.78125 9.90625 50.3125 4.234375 
Q 43.84375 -1.421875 31.78125 -1.421875 
Q 19.734375 -1.421875 13.25 4.234375 
Q 6.78125 9.90625 6.78125 20.515625 
Q 6.78125 27.484375 10.78125 32.3125 
Q 14.796875 37.15625 21.921875 38.8125 
z
M 18.3125 54.390625 
Q 18.3125 48.734375 21.84375 45.5625 
Q 25.390625 42.390625 31.78125 42.390625 
Q 38.140625 42.390625 41.71875 45.5625 
Q 45.3125 48.734375 45.3125 54.390625 
Q 45.3125 60.0625 41.71875 63.234375 
Q 38.140625 66.40625 31.78125 66.40625 
Q 25.390625 66.40625 21.84375 63.234375 
Q 18.3125 60.0625 18.3125 54.390625 
z
" id="DejaVuSans-56"/>
       </defs>
       <use xlink:href="#DejaVuSans-56"/>
       <use x="63.623047" xlink:href="#DejaVuSans-48"/>
      </g>
     </g>
    </g>
    <g id="xtick_6">
     <g id="line2d_6">
      <g>
       <use style="stroke:#000000;stroke-width:0.8;" x="480.308044" xlink:href="#mbcb4555c15" y="504"/>
      </g>
     </g>
     <g id="text_6">
      <!-- 100 -->
      <g transform="translate(470.764294 518.598438)scale(0.1 -0.1)">
       <defs>
        <path d="M 12.40625 8.296875 
L 28.515625 8.296875 
L 28.515625 63.921875 
L 10.984375 60.40625 
L 10.984375 69.390625 
L 28.421875 72.90625 
L 38.28125 72.90625 
L 38.28125 8.296875 
L 54.390625 8.296875 
L 54.390625 0 
L 12.40625 0 
z
" id="DejaVuSans-49"/>
       </defs>
       <use xlink:href="#DejaVuSans-49"/>
       <use x="63.623047" xlink:href="#DejaVuSans-48"/>
       <use x="127.246094" xlink:href="#DejaVuSans-48"/>
      </g>
     </g>
    </g>
    <g id="xtick_7">
     <g id="line2d_7">
      <g>
       <use style="stroke:#000000;stroke-width:0.8;" x="553.296926" xlink:href="#mbcb4555c15" y="504"/>
      </g>
     </g>
     <g id="text_7">
      <!-- 120 -->
      <g transform="translate(543.753176 518.598438)scale(0.1 -0.1)">
       <use xlink:href="#DejaVuSans-49"/>
       <use x="63.623047" xlink:href="#DejaVuSans-50"/>
       <use x="127.246094" xlink:href="#DejaVuSans-48"/>
      </g>
     </g>
    </g>
    <g id="xtick_8">
     <g id="line2d_8">
      <g>
       <use style="stroke:#000000;stroke-width:0.8;" x="626.285808" xlink:href="#mbcb4555c15" y="504"/>
      </g>
     </g>
     <g id="text_8">
      <!-- 140 -->
      <g transform="translate(616.742058 518.598438)scale(0.1 -0.1)">
       <use xlink:href="#DejaVuSans-49"/>
       <use x="63.623047" xlink:href="#DejaVuSans-52"/>
       <use x="127.246094" xlink:href="#DejaVuSans-48"/>
      </g>
     </g>
    </g>
   </g>
   <g id="matplotlib.axis_2">
    <g id="ytick_1">
     <g id="line2d_9">
      <defs>
       <path d="M 0 0 
L -3.5 0 
" id="mde3cec91d4" style="stroke:#000000;stroke-width:0.8;"/>
      </defs>
      <g>
       <use style="stroke:#000000;stroke-width:0.8;" x="90" xlink:href="#mde3cec91d4" y="497.427823"/>
      </g>
     </g>
     <g id="text_9">
      <!-- 0 -->
      <g transform="translate(76.6375 501.227042)scale(0.1 -0.1)">
       <use xlink:href="#DejaVuSans-48"/>
      </g>
     </g>
    </g>
    <g id="ytick_2">
     <g id="line2d_10">
      <g>
       <use style="stroke:#000000;stroke-width:0.8;" x="90" xlink:href="#mde3cec91d4" y="425.754042"/>
      </g>
     </g>
     <g id="text_10">
      <!-- 10 -->
      <g transform="translate(70.275 429.553261)scale(0.1 -0.1)">
       <use xlink:href="#DejaVuSans-49"/>
       <use x="63.623047" xlink:href="#DejaVuSans-48"/>
      </g>
     </g>
    </g>
    <g id="ytick_3">
     <g id="line2d_11">
      <g>
       <use style="stroke:#000000;stroke-width:0.8;" x="90" xlink:href="#mde3cec91d4" y="354.080262"/>
      </g>
     </g>
     <g id="text_11">
      <!-- 20 -->
      <g transform="translate(70.275 357.87948)scale(0.1 -0.1)">
       <use xlink:href="#DejaVuSans-50"/>
       <use x="63.623047" xlink:href="#DejaVuSans-48"/>
      </g>
     </g>
    </g>
    <g id="ytick_4">
     <g id="line2d_12">
      <g>
       <use style="stroke:#000000;stroke-width:0.8;" x="90" xlink:href="#mde3cec91d4" y="282.406481"/>
      </g>
     </g>
     <g id="text_12">
      <!-- 30 -->
      <g transform="translate(70.275 286.2057)scale(0.1 -0.1)">
       <defs>
        <path d="M 40.578125 39.3125 
Q 47.65625 37.796875 51.625 33 
Q 55.609375 28.21875 55.609375 21.1875 
Q 55.609375 10.40625 48.1875 4.484375 
Q 40.765625 -1.421875 27.09375 -1.421875 
Q 22.515625 -1.421875 17.65625 -0.515625 
Q 12.796875 0.390625 7.625 2.203125 
L 7.625 11.71875 
Q 11.71875 9.328125 16.59375 8.109375 
Q 21.484375 6.890625 26.8125 6.890625 
Q 36.078125 6.890625 40.9375 10.546875 
Q 45.796875 14.203125 45.796875 21.1875 
Q 45.796875 27.640625 41.28125 31.265625 
Q 36.765625 34.90625 28.71875 34.90625 
L 20.21875 34.90625 
L 20.21875 43.015625 
L 29.109375 43.015625 
Q 36.375 43.015625 40.234375 45.921875 
Q 44.09375 48.828125 44.09375 54.296875 
Q 44.09375 59.90625 40.109375 62.90625 
Q 36.140625 65.921875 28.71875 65.921875 
Q 24.65625 65.921875 20.015625 65.03125 
Q 15.375 64.15625 9.8125 62.3125 
L 9.8125 71.09375 
Q 15.4375 72.65625 20.34375 73.4375 
Q 25.25 74.21875 29.59375 74.21875 
Q 40.828125 74.21875 47.359375 69.109375 
Q 53.90625 64.015625 53.90625 55.328125 
Q 53.90625 49.265625 50.4375 45.09375 
Q 46.96875 40.921875 40.578125 39.3125 
z
" id="DejaVuSans-51"/>
       </defs>
       <use xlink:href="#DejaVuSans-51"/>
       <use x="63.623047" xlink:href="#DejaVuSans-48"/>
      </g>
     </g>
    </g>
    <g id="ytick_5">
     <g id="line2d_13">
      <g>
       <use style="stroke:#000000;stroke-width:0.8;" x="90" xlink:href="#mde3cec91d4" y="210.7327"/>
      </g>
     </g>
     <g id="text_13">
      <!-- 40 -->
      <g transform="translate(70.275 214.531919)scale(0.1 -0.1)">
       <use xlink:href="#DejaVuSans-52"/>
       <use x="63.623047" xlink:href="#DejaVuSans-48"/>
      </g>
     </g>
    </g>
    <g id="ytick_6">
     <g id="line2d_14">
      <g>
       <use style="stroke:#000000;stroke-width:0.8;" x="90" xlink:href="#mde3cec91d4" y="139.058919"/>
      </g>
     </g>
     <g id="text_14">
      <!-- 50 -->
      <g transform="translate(70.275 142.858138)scale(0.1 -0.1)">
       <defs>
        <path d="M 10.796875 72.90625 
L 49.515625 72.90625 
L 49.515625 64.59375 
L 19.828125 64.59375 
L 19.828125 46.734375 
Q 21.96875 47.46875 24.109375 47.828125 
Q 26.265625 48.1875 28.421875 48.1875 
Q 40.625 48.1875 47.75 41.5 
Q 54.890625 34.8125 54.890625 23.390625 
Q 54.890625 11.625 47.5625 5.09375 
Q 40.234375 -1.421875 26.90625 -1.421875 
Q 22.3125 -1.421875 17.546875 -0.640625 
Q 12.796875 0.140625 7.71875 1.703125 
L 7.71875 11.625 
Q 12.109375 9.234375 16.796875 8.0625 
Q 21.484375 6.890625 26.703125 6.890625 
Q 35.15625 6.890625 40.078125 11.328125 
Q 45.015625 15.765625 45.015625 23.390625 
Q 45.015625 31 40.078125 35.4375 
Q 35.15625 39.890625 26.703125 39.890625 
Q 22.75 39.890625 18.8125 39.015625 
Q 14.890625 38.140625 10.796875 36.28125 
z
" id="DejaVuSans-53"/>
       </defs>
       <use xlink:href="#DejaVuSans-53"/>
       <use x="63.623047" xlink:href="#DejaVuSans-48"/>
      </g>
     </g>
    </g>
   </g>
   <g id="line2d_15">
    <path clip-path="url(#pdbc89fd5ad)" d="M 115.363636 232.234834 
L 119.01308 217.900078 
L 122.662525 210.7327 
L 126.311969 225.067456 
L 129.961413 210.7327 
L 133.610857 203.565322 
L 137.260301 225.067456 
L 140.909745 239.402212 
L 144.559189 196.397944 
L 148.208633 160.561054 
L 151.858077 203.565322 
L 155.507521 189.230566 
L 159.156965 167.728432 
L 162.806409 196.397944 
L 166.455853 160.561054 
L 170.105298 182.063188 
L 173.754742 196.397944 
L 177.404186 196.397944 
L 181.05363 182.063188 
L 184.703074 182.063188 
L 192.001962 153.393675 
L 195.651406 189.230566 
L 199.30085 217.900078 
L 202.950294 146.226297 
L 206.599738 117.556785 
L 210.249182 124.724163 
L 213.898627 103.222029 
L 217.548071 146.226297 
L 221.197515 153.393675 
L 224.846959 196.397944 
L 228.496403 174.89581 
L 232.145847 146.226297 
L 235.795291 167.728432 
L 239.444735 160.561054 
L 243.094179 189.230566 
L 246.743623 146.226297 
L 250.393067 110.389407 
L 254.042511 153.393675 
L 257.691956 103.222029 
L 261.3414 117.556785 
L 264.990844 88.887273 
L 268.640288 110.389407 
L 272.289732 103.222029 
L 275.939176 139.058919 
L 279.58862 131.891541 
L 283.238064 131.891541 
L 286.887508 189.230566 
L 290.536952 146.226297 
L 294.186396 182.063188 
L 297.83584 160.561054 
L 301.485284 167.728432 
L 305.134729 182.063188 
L 308.784173 153.393675 
L 312.433617 167.728432 
L 316.083061 160.561054 
L 319.732505 174.89581 
L 323.381949 203.565322 
L 327.031393 182.063188 
L 330.680837 167.728432 
L 334.330281 146.226297 
L 337.979725 160.561054 
L 341.629169 160.561054 
L 345.278613 167.728432 
L 348.928058 196.397944 
L 352.577502 196.397944 
L 359.87639 210.7327 
L 363.525834 196.397944 
L 367.175278 167.728432 
L 370.824722 182.063188 
L 374.474166 182.063188 
L 378.12361 174.89581 
L 381.773054 196.397944 
L 385.422498 182.063188 
L 389.071942 131.891541 
L 392.721387 146.226297 
L 396.370831 174.89581 
L 400.020275 124.724163 
L 403.669719 139.058919 
L 407.319163 131.891541 
L 410.968607 167.728432 
L 414.618051 167.728432 
L 418.267495 174.89581 
L 421.916939 160.561054 
L 425.566383 196.397944 
L 429.215827 167.728432 
L 432.865271 160.561054 
L 436.514716 196.397944 
L 440.16416 182.063188 
L 443.813604 153.393675 
L 447.463048 196.397944 
L 451.112492 189.230566 
L 454.761936 217.900078 
L 458.41138 196.397944 
L 462.060824 182.063188 
L 465.710268 160.561054 
L 469.359712 174.89581 
L 473.009156 139.058919 
L 476.6586 189.230566 
L 480.308044 103.222029 
L 483.957489 225.067456 
L 487.606933 225.067456 
L 491.256377 189.230566 
L 494.905821 182.063188 
L 498.555265 210.7327 
L 502.204709 217.900078 
L 505.854153 210.7327 
L 509.503597 225.067456 
L 513.153041 210.7327 
L 516.802485 203.565322 
L 520.451929 210.7327 
L 524.101373 196.397944 
L 527.750818 225.067456 
L 531.400262 210.7327 
L 535.049706 210.7327 
L 538.69915 217.900078 
L 545.998038 189.230566 
L 549.647482 210.7327 
L 553.296926 225.067456 
L 556.94637 217.900078 
L 567.894702 217.900078 
L 571.544147 160.561054 
L 575.193591 160.561054 
L 578.843035 174.89581 
L 582.492479 153.393675 
L 586.141923 167.728432 
L 589.791367 167.728432 
L 593.440811 189.230566 
L 597.090255 196.397944 
L 600.739699 153.393675 
L 604.389143 196.397944 
L 608.038587 153.393675 
L 611.688031 182.063188 
L 615.337475 225.067456 
L 618.98692 189.230566 
L 622.636364 203.565322 
L 622.636364 203.565322 
" style="fill:none;stroke:#1f77b4;stroke-linecap:square;stroke-width:1.5;"/>
   </g>
   <g id="line2d_16">
    <path clip-path="url(#pdbc89fd5ad)" d="M 115.363636 426.203843 
L 119.01308 430.791242 
L 122.662525 423.803952 
L 126.311969 420.235862 
L 129.961413 416.831882 
L 133.610857 427.432219 
L 137.260301 431.475787 
L 140.909745 398.384896 
L 144.559189 418.199719 
L 148.208633 409.880861 
L 151.858077 424.559578 
L 155.507521 413.764986 
L 159.156965 422.206392 
L 162.806409 418.956555 
L 166.455853 440.910743 
L 170.105298 431.576902 
L 173.754742 416.63092 
L 177.404186 424.927992 
L 181.05363 430.187912 
L 184.703074 427.357403 
L 188.352518 417.402229 
L 195.651406 405.341759 
L 199.30085 434.90474 
L 202.950294 398.366421 
L 206.599738 415.379192 
L 210.249182 408.20289 
L 213.898627 389.352419 
L 217.548071 414.078237 
L 221.197515 400.393548 
L 224.846959 422.227017 
L 228.496403 409.506338 
L 232.145847 420.085377 
L 235.795291 431.727978 
L 239.444735 432.279347 
L 243.094179 392.295635 
L 246.743623 408.877977 
L 250.393067 399.772976 
L 254.042511 421.19978 
L 257.691956 397.431931 
L 261.3414 433.566353 
L 264.990844 408.110091 
L 268.640288 405.860012 
L 272.289732 404.304815 
L 275.939176 406.598041 
L 279.58862 372.410481 
L 283.238064 389.26453 
L 286.887508 400.229114 
L 290.536952 406.59908 
L 294.186396 382.51105 
L 297.83584 406.813038 
L 301.485284 417.467358 
L 305.134729 393.992905 
L 308.784173 374.352179 
L 312.433617 402.325792 
L 316.083061 400.137832 
L 319.732505 365.907304 
L 323.381949 416.447153 
L 327.031393 372.786108 
L 330.680837 382.318932 
L 337.979725 390.738608 
L 341.629169 406.200943 
L 345.278613 395.829682 
L 348.928058 413.391153 
L 352.577502 422.065234 
L 356.226946 413.540407 
L 359.87639 392.820679 
L 363.525834 377.908147 
L 367.175278 393.920157 
L 370.824722 388.167553 
L 374.474166 385.790356 
L 378.12361 358.753165 
L 381.773054 358.900939 
L 385.422498 392.033927 
L 389.071942 367.193902 
L 392.721387 380.211095 
L 396.370831 420.089353 
L 400.020275 366.911502 
L 403.669719 393.233075 
L 407.319163 388.685329 
L 410.968607 367.820877 
L 414.618051 393.030314 
L 418.267495 383.525949 
L 421.916939 389.106089 
L 425.566383 381.554579 
L 429.215827 378.144135 
L 432.865271 377.677052 
L 436.514716 361.286867 
L 440.16416 378.055921 
L 443.813604 397.155654 
L 447.463048 371.191933 
L 451.112492 363.060668 
L 454.761936 383.464552 
L 458.41138 394.556745 
L 462.060824 371.453913 
L 465.710268 404.768779 
L 469.359712 383.129578 
L 473.009156 392.864772 
L 476.6586 419.334227 
L 480.308044 407.392181 
L 483.957489 460.28101 
L 487.606933 463.837327 
L 491.256377 447.309578 
L 494.905821 466.895304 
L 498.555265 422.973156 
L 502.204709 445.065676 
L 505.854153 438.071135 
L 509.503597 430.676001 
L 513.153041 427.475993 
L 516.802485 445.735294 
L 520.451929 423.222159 
L 524.101373 440.053431 
L 527.750818 410.839022 
L 531.400262 446.62106 
L 535.049706 452.197823 
L 538.69915 422.288262 
L 542.348594 442.298071 
L 545.998038 428.24347 
L 549.647482 428.713496 
L 553.296926 409.94809 
L 556.94637 431.45397 
L 560.595814 440.143143 
L 564.245258 418.534191 
L 567.894702 419.696947 
L 571.544147 385.852965 
L 575.193591 421.086398 
L 578.843035 399.271937 
L 582.492479 430.416339 
L 586.141923 411.398429 
L 589.791367 404.95642 
L 593.440811 418.443794 
L 597.090255 408.477551 
L 600.739699 414.697138 
L 604.389143 417.55168 
L 608.038587 404.175368 
L 611.688031 414.806468 
L 615.337475 421.86707 
L 618.98692 403.392188 
L 622.636364 429.983943 
L 622.636364 429.983943 
" style="fill:none;stroke:#ff7f0e;stroke-linecap:square;stroke-width:1.5;"/>
   </g>
   <g id="line2d_17">
    <path clip-path="url(#pdbc89fd5ad)" d="M 115.363636 474.165175 
L 119.01308 472.859614 
L 122.662525 472.574242 
L 126.311969 472.022073 
L 129.961413 469.455 
L 133.610857 468.362817 
L 137.260301 468.178409 
L 140.909745 467.140801 
L 144.559189 467.535212 
L 148.208633 463.268688 
L 151.858077 461.508475 
L 155.507521 461.475746 
L 159.156965 461.7984 
L 162.806409 459.414526 
L 166.455853 461.32176 
L 170.105298 461.866795 
L 173.754742 461.391031 
L 177.404186 459.928495 
L 181.05363 459.022013 
L 184.703074 461.573827 
L 188.352518 461.13483 
L 192.001962 458.212193 
L 195.651406 456.679038 
L 199.30085 457.968445 
L 202.950294 451.911374 
L 206.599738 451.337146 
L 210.249182 449.444156 
L 213.898627 452.134362 
L 217.548071 454.526827 
L 221.197515 453.902425 
L 224.846959 450.712163 
L 232.145847 452.320149 
L 235.795291 451.951961 
L 239.444735 450.601637 
L 243.094179 448.985811 
L 246.743623 445.652301 
L 250.393067 446.952742 
L 257.691956 446.681098 
L 261.3414 445.63836 
L 264.990844 445.015667 
L 268.640288 440.264392 
L 275.939176 440.081979 
L 279.58862 441.520135 
L 283.238064 441.20041 
L 286.887508 443.820003 
L 290.536952 440.376064 
L 294.186396 438.610629 
L 297.83584 438.946264 
L 301.485284 436.429375 
L 305.134729 434.767827 
L 308.784173 430.795286 
L 312.433617 432.114494 
L 316.083061 431.87746 
L 319.732505 433.177734 
L 323.381949 434.33028 
L 327.031393 434.811716 
L 330.680837 436.719326 
L 334.330281 437.186221 
L 337.979725 436.265802 
L 341.629169 438.501604 
L 345.278613 439.278212 
L 348.928058 441.919285 
L 352.577502 438.50009 
L 356.226946 434.478628 
L 359.87639 433.747218 
L 363.525834 433.180292 
L 367.175278 430.532204 
L 370.824722 428.905641 
L 374.474166 428.91803 
L 378.12361 427.203972 
L 381.773054 428.15144 
L 385.422498 432.82491 
L 389.071942 425.287267 
L 392.721387 423.727675 
L 396.370831 423.873221 
L 400.020275 420.796117 
L 403.669719 419.347764 
L 407.319163 422.29421 
L 410.968607 418.665832 
L 414.618051 419.947771 
L 418.267495 415.177558 
L 421.916939 407.09499 
L 425.566383 406.862567 
L 429.215827 399.091304 
L 432.865271 394.707712 
L 436.514716 391.689094 
L 440.16416 399.728025 
L 443.813604 404.887473 
L 447.463048 409.098502 
L 451.112492 405.835138 
L 454.761936 406.734533 
L 458.41138 406.545583 
L 462.060824 411.649258 
L 465.710268 411.509548 
L 469.359712 411.886349 
L 473.009156 409.347979 
L 476.6586 408.74895 
L 480.308044 400.967089 
L 483.957489 484.232727 
L 487.606933 484.232727 
L 491.256377 482.746778 
L 494.905821 482.455692 
L 498.555265 480.593941 
L 502.204709 479.366069 
L 505.854153 477.759364 
L 509.503597 476.514637 
L 513.153041 474.428126 
L 516.802485 474.343553 
L 520.451929 471.536302 
L 524.101373 471.212005 
L 527.750818 468.368539 
L 531.400262 468.505731 
L 535.049706 466.965049 
L 538.69915 466.084518 
L 542.348594 463.1779 
L 545.998038 460.556612 
L 549.647482 457.40062 
L 556.94637 459.477044 
L 560.595814 458.193596 
L 564.245258 456.508903 
L 567.894702 456.476613 
L 571.544147 452.199241 
L 575.193591 445.576259 
L 578.843035 447.942629 
L 582.492479 449.06184 
L 586.141923 444.737857 
L 589.791367 446.307721 
L 593.440811 450.3579 
L 600.739699 447.889845 
L 604.389143 448.843411 
L 608.038587 448.57323 
L 611.688031 449.573854 
L 615.337475 449.293836 
L 618.98692 445.191799 
L 622.636364 444.400033 
L 622.636364 444.400033 
" style="fill:none;stroke:#2ca02c;stroke-linecap:square;stroke-width:1.5;"/>
   </g>
   <g id="patch_3">
    <path d="M 90 504 
L 90 69.12 
" style="fill:none;stroke:#000000;stroke-linecap:square;stroke-linejoin:miter;stroke-width:0.8;"/>
   </g>
   <g id="patch_4">
    <path d="M 648 504 
L 648 69.12 
" style="fill:none;stroke:#000000;stroke-linecap:square;stroke-linejoin:miter;stroke-width:0.8;"/>
   </g>
   <g id="patch_5">
    <path d="M 90 504 
L 648 504 
" style="fill:none;stroke:#000000;stroke-linecap:square;stroke-linejoin:miter;stroke-width:0.8;"/>
   </g>
   <g id="patch_6">
    <path d="M 90 69.12 
L 648 69.12 
" style="fill:none;stroke:#000000;stroke-linecap:square;stroke-linejoin:miter;stroke-width:0.8;"/>
   </g>
   <g id="legend_1">
    <g id="patch_7">
     <path d="M 535.609375 121.154375 
L 641 121.154375 
Q 643 121.154375 643 119.154375 
L 643 76.12 
Q 643 74.12 641 74.12 
L 535.609375 74.12 
Q 533.609375 74.12 533.609375 76.12 
L 533.609375 119.154375 
Q 533.609375 121.154375 535.609375 121.154375 
z
" style="fill:#ffffff;opacity:0.8;stroke:#cccccc;stroke-linejoin:miter;"/>
    </g>
    <g id="line2d_18">
     <path d="M 537.609375 82.218437 
L 557.609375 82.218437 
" style="fill:none;stroke:#1f77b4;stroke-linecap:square;stroke-width:1.5;"/>
    </g>
    <g id="line2d_19"/>
    <g id="text_15">
     <!-- Richness -->
     <g transform="translate(565.609375 85.718437)scale(0.1 -0.1)">
      <defs>
       <path d="M 44.390625 34.1875 
Q 47.5625 33.109375 50.5625 29.59375 
Q 53.5625 26.078125 56.59375 19.921875 
L 66.609375 0 
L 56 0 
L 46.6875 18.703125 
Q 43.0625 26.03125 39.671875 28.421875 
Q 36.28125 30.8125 30.421875 30.8125 
L 19.671875 30.8125 
L 19.671875 0 
L 9.8125 0 
L 9.8125 72.90625 
L 32.078125 72.90625 
Q 44.578125 72.90625 50.734375 67.671875 
Q 56.890625 62.453125 56.890625 51.90625 
Q 56.890625 45.015625 53.6875 40.46875 
Q 50.484375 35.9375 44.390625 34.1875 
z
M 19.671875 64.796875 
L 19.671875 38.921875 
L 32.078125 38.921875 
Q 39.203125 38.921875 42.84375 42.21875 
Q 46.484375 45.515625 46.484375 51.90625 
Q 46.484375 58.296875 42.84375 61.546875 
Q 39.203125 64.796875 32.078125 64.796875 
z
" id="DejaVuSans-82"/>
       <path d="M 9.421875 54.6875 
L 18.40625 54.6875 
L 18.40625 0 
L 9.421875 0 
z
M 9.421875 75.984375 
L 18.40625 75.984375 
L 18.40625 64.59375 
L 9.421875 64.59375 
z
" id="DejaVuSans-105"/>
       <path d="M 48.78125 52.59375 
L 48.78125 44.1875 
Q 44.96875 46.296875 41.140625 47.34375 
Q 37.3125 48.390625 33.40625 48.390625 
Q 24.65625 48.390625 19.8125 42.84375 
Q 14.984375 37.3125 14.984375 27.296875 
Q 14.984375 17.28125 19.8125 11.734375 
Q 24.65625 6.203125 33.40625 6.203125 
Q 37.3125 6.203125 41.140625 7.25 
Q 44.96875 8.296875 48.78125 10.40625 
L 48.78125 2.09375 
Q 45.015625 0.34375 40.984375 -0.53125 
Q 36.96875 -1.421875 32.421875 -1.421875 
Q 20.0625 -1.421875 12.78125 6.34375 
Q 5.515625 14.109375 5.515625 27.296875 
Q 5.515625 40.671875 12.859375 48.328125 
Q 20.21875 56 33.015625 56 
Q 37.15625 56 41.109375 55.140625 
Q 45.0625 54.296875 48.78125 52.59375 
z
" id="DejaVuSans-99"/>
       <path d="M 54.890625 33.015625 
L 54.890625 0 
L 45.90625 0 
L 45.90625 32.71875 
Q 45.90625 40.484375 42.875 44.328125 
Q 39.84375 48.1875 33.796875 48.1875 
Q 26.515625 48.1875 22.3125 43.546875 
Q 18.109375 38.921875 18.109375 30.90625 
L 18.109375 0 
L 9.078125 0 
L 9.078125 75.984375 
L 18.109375 75.984375 
L 18.109375 46.1875 
Q 21.34375 51.125 25.703125 53.5625 
Q 30.078125 56 35.796875 56 
Q 45.21875 56 50.046875 50.171875 
Q 54.890625 44.34375 54.890625 33.015625 
z
" id="DejaVuSans-104"/>
       <path d="M 54.890625 33.015625 
L 54.890625 0 
L 45.90625 0 
L 45.90625 32.71875 
Q 45.90625 40.484375 42.875 44.328125 
Q 39.84375 48.1875 33.796875 48.1875 
Q 26.515625 48.1875 22.3125 43.546875 
Q 18.109375 38.921875 18.109375 30.90625 
L 18.109375 0 
L 9.078125 0 
L 9.078125 54.6875 
L 18.109375 54.6875 
L 18.109375 46.1875 
Q 21.34375 51.125 25.703125 53.5625 
Q 30.078125 56 35.796875 56 
Q 45.21875 56 50.046875 50.171875 
Q 54.890625 44.34375 54.890625 33.015625 
z
" id="DejaVuSans-110"/>
       <path d="M 56.203125 29.59375 
L 56.203125 25.203125 
L 14.890625 25.203125 
Q 15.484375 15.921875 20.484375 11.0625 
Q 25.484375 6.203125 34.421875 6.203125 
Q 39.59375 6.203125 44.453125 7.46875 
Q 49.3125 8.734375 54.109375 11.28125 
L 54.109375 2.78125 
Q 49.265625 0.734375 44.1875 -0.34375 
Q 39.109375 -1.421875 33.890625 -1.421875 
Q 20.796875 -1.421875 13.15625 6.1875 
Q 5.515625 13.8125 5.515625 26.8125 
Q 5.515625 40.234375 12.765625 48.109375 
Q 20.015625 56 32.328125 56 
Q 43.359375 56 49.78125 48.890625 
Q 56.203125 41.796875 56.203125 29.59375 
z
M 47.21875 32.234375 
Q 47.125 39.59375 43.09375 43.984375 
Q 39.0625 48.390625 32.421875 48.390625 
Q 24.90625 48.390625 20.390625 44.140625 
Q 15.875 39.890625 15.1875 32.171875 
z
" id="DejaVuSans-101"/>
       <path d="M 44.28125 53.078125 
L 44.28125 44.578125 
Q 40.484375 46.53125 36.375 47.5 
Q 32.28125 48.484375 27.875 48.484375 
Q 21.1875 48.484375 17.84375 46.4375 
Q 14.5 44.390625 14.5 40.28125 
Q 14.5 37.15625 16.890625 35.375 
Q 19.28125 33.59375 26.515625 31.984375 
L 29.59375 31.296875 
Q 39.15625 29.25 43.1875 25.515625 
Q 47.21875 21.78125 47.21875 15.09375 
Q 47.21875 7.46875 41.1875 3.015625 
Q 35.15625 -1.421875 24.609375 -1.421875 
Q 20.21875 -1.421875 15.453125 -0.5625 
Q 10.6875 0.296875 5.421875 2 
L 5.421875 11.28125 
Q 10.40625 8.6875 15.234375 7.390625 
Q 20.0625 6.109375 24.8125 6.109375 
Q 31.15625 6.109375 34.5625 8.28125 
Q 37.984375 10.453125 37.984375 14.40625 
Q 37.984375 18.0625 35.515625 20.015625 
Q 33.0625 21.96875 24.703125 23.78125 
L 21.578125 24.515625 
Q 13.234375 26.265625 9.515625 29.90625 
Q 5.8125 33.546875 5.8125 39.890625 
Q 5.8125 47.609375 11.28125 51.796875 
Q 16.75 56 26.8125 56 
Q 31.78125 56 36.171875 55.265625 
Q 40.578125 54.546875 44.28125 53.078125 
z
" id="DejaVuSans-115"/>
      </defs>
      <use xlink:href="#DejaVuSans-82"/>
      <use x="69.482422" xlink:href="#DejaVuSans-105"/>
      <use x="97.265625" xlink:href="#DejaVuSans-99"/>
      <use x="152.246094" xlink:href="#DejaVuSans-104"/>
      <use x="215.625" xlink:href="#DejaVuSans-110"/>
      <use x="279.003906" xlink:href="#DejaVuSans-101"/>
      <use x="340.527344" xlink:href="#DejaVuSans-115"/>
      <use x="392.626953" xlink:href="#DejaVuSans-115"/>
     </g>
    </g>
    <g id="line2d_20">
     <path d="M 537.609375 96.896563 
L 557.609375 96.896563 
" style="fill:none;stroke:#ff7f0e;stroke-linecap:square;stroke-width:1.5;"/>
    </g>
    <g id="line2d_21"/>
    <g id="text_16">
     <!-- Genetics H1 -->
     <g transform="translate(565.609375 100.396563)scale(0.1 -0.1)">
      <defs>
       <path d="M 59.515625 10.40625 
L 59.515625 29.984375 
L 43.40625 29.984375 
L 43.40625 38.09375 
L 69.28125 38.09375 
L 69.28125 6.78125 
Q 63.578125 2.734375 56.6875 0.65625 
Q 49.8125 -1.421875 42 -1.421875 
Q 24.90625 -1.421875 15.25 8.5625 
Q 5.609375 18.5625 5.609375 36.375 
Q 5.609375 54.25 15.25 64.234375 
Q 24.90625 74.21875 42 74.21875 
Q 49.125 74.21875 55.546875 72.453125 
Q 61.96875 70.703125 67.390625 67.28125 
L 67.390625 56.78125 
Q 61.921875 61.421875 55.765625 63.765625 
Q 49.609375 66.109375 42.828125 66.109375 
Q 29.4375 66.109375 22.71875 58.640625 
Q 16.015625 51.171875 16.015625 36.375 
Q 16.015625 21.625 22.71875 14.15625 
Q 29.4375 6.6875 42.828125 6.6875 
Q 48.046875 6.6875 52.140625 7.59375 
Q 56.25 8.5 59.515625 10.40625 
z
" id="DejaVuSans-71"/>
       <path d="M 18.3125 70.21875 
L 18.3125 54.6875 
L 36.8125 54.6875 
L 36.8125 47.703125 
L 18.3125 47.703125 
L 18.3125 18.015625 
Q 18.3125 11.328125 20.140625 9.421875 
Q 21.96875 7.515625 27.59375 7.515625 
L 36.8125 7.515625 
L 36.8125 0 
L 27.59375 0 
Q 17.1875 0 13.234375 3.875 
Q 9.28125 7.765625 9.28125 18.015625 
L 9.28125 47.703125 
L 2.6875 47.703125 
L 2.6875 54.6875 
L 9.28125 54.6875 
L 9.28125 70.21875 
z
" id="DejaVuSans-116"/>
       <path id="DejaVuSans-32"/>
       <path d="M 9.8125 72.90625 
L 19.671875 72.90625 
L 19.671875 43.015625 
L 55.515625 43.015625 
L 55.515625 72.90625 
L 65.375 72.90625 
L 65.375 0 
L 55.515625 0 
L 55.515625 34.71875 
L 19.671875 34.71875 
L 19.671875 0 
L 9.8125 0 
z
" id="DejaVuSans-72"/>
      </defs>
      <use xlink:href="#DejaVuSans-71"/>
      <use x="77.490234" xlink:href="#DejaVuSans-101"/>
      <use x="139.013672" xlink:href="#DejaVuSans-110"/>
      <use x="202.392578" xlink:href="#DejaVuSans-101"/>
      <use x="263.916016" xlink:href="#DejaVuSans-116"/>
      <use x="303.125" xlink:href="#DejaVuSans-105"/>
      <use x="330.908203" xlink:href="#DejaVuSans-99"/>
      <use x="385.888672" xlink:href="#DejaVuSans-115"/>
      <use x="437.988281" xlink:href="#DejaVuSans-32"/>
      <use x="469.775391" xlink:href="#DejaVuSans-72"/>
      <use x="544.970703" xlink:href="#DejaVuSans-49"/>
     </g>
    </g>
    <g id="line2d_22">
     <path d="M 537.609375 111.574687 
L 557.609375 111.574687 
" style="fill:none;stroke:#2ca02c;stroke-linecap:square;stroke-width:1.5;"/>
    </g>
    <g id="line2d_23"/>
    <g id="text_17">
     <!-- Abundance H1 -->
     <g transform="translate(565.609375 115.074687)scale(0.1 -0.1)">
      <defs>
       <path d="M 34.1875 63.1875 
L 20.796875 26.90625 
L 47.609375 26.90625 
z
M 28.609375 72.90625 
L 39.796875 72.90625 
L 67.578125 0 
L 57.328125 0 
L 50.6875 18.703125 
L 17.828125 18.703125 
L 11.1875 0 
L 0.78125 0 
z
" id="DejaVuSans-65"/>
       <path d="M 48.6875 27.296875 
Q 48.6875 37.203125 44.609375 42.84375 
Q 40.53125 48.484375 33.40625 48.484375 
Q 26.265625 48.484375 22.1875 42.84375 
Q 18.109375 37.203125 18.109375 27.296875 
Q 18.109375 17.390625 22.1875 11.75 
Q 26.265625 6.109375 33.40625 6.109375 
Q 40.53125 6.109375 44.609375 11.75 
Q 48.6875 17.390625 48.6875 27.296875 
z
M 18.109375 46.390625 
Q 20.953125 51.265625 25.265625 53.625 
Q 29.59375 56 35.59375 56 
Q 45.5625 56 51.78125 48.09375 
Q 58.015625 40.1875 58.015625 27.296875 
Q 58.015625 14.40625 51.78125 6.484375 
Q 45.5625 -1.421875 35.59375 -1.421875 
Q 29.59375 -1.421875 25.265625 0.953125 
Q 20.953125 3.328125 18.109375 8.203125 
L 18.109375 0 
L 9.078125 0 
L 9.078125 75.984375 
L 18.109375 75.984375 
z
" id="DejaVuSans-98"/>
       <path d="M 8.5 21.578125 
L 8.5 54.6875 
L 17.484375 54.6875 
L 17.484375 21.921875 
Q 17.484375 14.15625 20.5 10.265625 
Q 23.53125 6.390625 29.59375 6.390625 
Q 36.859375 6.390625 41.078125 11.03125 
Q 45.3125 15.671875 45.3125 23.6875 
L 45.3125 54.6875 
L 54.296875 54.6875 
L 54.296875 0 
L 45.3125 0 
L 45.3125 8.40625 
Q 42.046875 3.421875 37.71875 1 
Q 33.40625 -1.421875 27.6875 -1.421875 
Q 18.265625 -1.421875 13.375 4.4375 
Q 8.5 10.296875 8.5 21.578125 
z
M 31.109375 56 
z
" id="DejaVuSans-117"/>
       <path d="M 45.40625 46.390625 
L 45.40625 75.984375 
L 54.390625 75.984375 
L 54.390625 0 
L 45.40625 0 
L 45.40625 8.203125 
Q 42.578125 3.328125 38.25 0.953125 
Q 33.9375 -1.421875 27.875 -1.421875 
Q 17.96875 -1.421875 11.734375 6.484375 
Q 5.515625 14.40625 5.515625 27.296875 
Q 5.515625 40.1875 11.734375 48.09375 
Q 17.96875 56 27.875 56 
Q 33.9375 56 38.25 53.625 
Q 42.578125 51.265625 45.40625 46.390625 
z
M 14.796875 27.296875 
Q 14.796875 17.390625 18.875 11.75 
Q 22.953125 6.109375 30.078125 6.109375 
Q 37.203125 6.109375 41.296875 11.75 
Q 45.40625 17.390625 45.40625 27.296875 
Q 45.40625 37.203125 41.296875 42.84375 
Q 37.203125 48.484375 30.078125 48.484375 
Q 22.953125 48.484375 18.875 42.84375 
Q 14.796875 37.203125 14.796875 27.296875 
z
" id="DejaVuSans-100"/>
       <path d="M 34.28125 27.484375 
Q 23.390625 27.484375 19.1875 25 
Q 14.984375 22.515625 14.984375 16.5 
Q 14.984375 11.71875 18.140625 8.90625 
Q 21.296875 6.109375 26.703125 6.109375 
Q 34.1875 6.109375 38.703125 11.40625 
Q 43.21875 16.703125 43.21875 25.484375 
L 43.21875 27.484375 
z
M 52.203125 31.203125 
L 52.203125 0 
L 43.21875 0 
L 43.21875 8.296875 
Q 40.140625 3.328125 35.546875 0.953125 
Q 30.953125 -1.421875 24.3125 -1.421875 
Q 15.921875 -1.421875 10.953125 3.296875 
Q 6 8.015625 6 15.921875 
Q 6 25.140625 12.171875 29.828125 
Q 18.359375 34.515625 30.609375 34.515625 
L 43.21875 34.515625 
L 43.21875 35.40625 
Q 43.21875 41.609375 39.140625 45 
Q 35.0625 48.390625 27.6875 48.390625 
Q 23 48.390625 18.546875 47.265625 
Q 14.109375 46.140625 10.015625 43.890625 
L 10.015625 52.203125 
Q 14.9375 54.109375 19.578125 55.046875 
Q 24.21875 56 28.609375 56 
Q 40.484375 56 46.34375 49.84375 
Q 52.203125 43.703125 52.203125 31.203125 
z
" id="DejaVuSans-97"/>
      </defs>
      <use xlink:href="#DejaVuSans-65"/>
      <use x="68.408203" xlink:href="#DejaVuSans-98"/>
      <use x="131.884766" xlink:href="#DejaVuSans-117"/>
      <use x="195.263672" xlink:href="#DejaVuSans-110"/>
      <use x="258.642578" xlink:href="#DejaVuSans-100"/>
      <use x="322.119141" xlink:href="#DejaVuSans-97"/>
      <use x="383.398438" xlink:href="#DejaVuSans-110"/>
      <use x="446.777344" xlink:href="#DejaVuSans-99"/>
      <use x="501.757812" xlink:href="#DejaVuSans-101"/>
      <use x="563.28125" xlink:href="#DejaVuSans-32"/>
      <use x="595.068359" xlink:href="#DejaVuSans-72"/>
      <use x="670.263672" xlink:href="#DejaVuSans-49"/>
     </g>
    </g>
   </g>
  </g>
 </g>
 <defs>
  <clipPath id="pdbc89fd5ad">
   <rect height="434.88" width="558" x="90" y="69.12"/>
  </clipPath>
 </defs>
</svg>
